<svg width="55" height="54" viewBox="0 0 55 54" fill="none" xmlns="http://www.w3.org/2000/svg">
<rect x="0.5" width="54" height="54" rx="27" fill="#175831"/>
<path d="M32 30C27.995 30 20 31.995 20 36V39H44V36C44 31.995 36.005 30 32 30ZM18.5 24V19.5H15.5V24H11V27H15.5V31.5H18.5V27H23V24M32 27C33.5913 27 35.1174 26.3679 36.2426 25.2426C37.3679 24.1174 38 22.5913 38 21C38 19.4087 37.3679 17.8826 36.2426 16.7574C35.1174 15.6321 33.5913 15 32 15C30.4087 15 28.8826 15.6321 27.7574 16.7574C26.6321 17.8826 26 19.4087 26 21C26 22.5913 26.6321 24.1174 27.7574 25.2426C28.8826 26.3679 30.4087 27 32 27Z" fill="#FAFAFA"/>
</svg>
