<svg width="30" height="31" viewBox="0 0 30 31" fill="none" xmlns="http://www.w3.org/2000/svg">
<path d="M0 15.5C0 7.21573 6.71573 0.5 15 0.5C23.2843 0.5 30 7.21573 30 15.5C30 23.7843 23.2843 30.5 15 30.5C6.71573 30.5 0 23.7843 0 15.5Z" fill="#175831"/>
<path d="M12.3208 12.5285L7.76231 13.1894L7.68157 13.2059C7.55934 13.2383 7.44792 13.3026 7.35868 13.3922C7.26943 13.4818 7.20557 13.5935 7.1736 13.7158C7.14163 13.8382 7.14271 13.9668 7.17672 14.0886C7.21073 14.2104 7.27645 14.321 7.36718 14.4091L10.6696 17.6237L9.89082 22.1643L9.88153 22.2429C9.87405 22.3693 9.9003 22.4955 9.95759 22.6084C10.0149 22.7213 10.1012 22.817 10.2076 22.8856C10.314 22.9543 10.4368 22.9934 10.5633 22.999C10.6898 23.0045 10.8155 22.9764 10.9276 22.9174L15.0045 20.7739L19.0722 22.9174L19.1437 22.9503C19.2616 22.9967 19.3898 23.011 19.515 22.9916C19.6403 22.9721 19.7581 22.9197 19.8564 22.8397C19.9548 22.7597 20.03 22.655 20.0745 22.5363C20.119 22.4176 20.1312 22.2893 20.1097 22.1643L19.3301 17.6237L22.634 14.4084L22.6897 14.3476C22.7694 14.2496 22.8216 14.1322 22.841 14.0074C22.8605 13.8826 22.8465 13.7549 22.8006 13.6372C22.7546 13.5196 22.6783 13.4162 22.5794 13.3377C22.4804 13.2592 22.3625 13.2082 22.2375 13.1901L17.6789 12.5285L15.6412 8.39867C15.5822 8.27902 15.4909 8.17826 15.3776 8.1078C15.2644 8.03734 15.1336 8 15.0002 8C14.8669 8 14.7361 8.03734 14.6229 8.1078C14.5096 8.17826 14.4183 8.27902 14.3593 8.39867L12.3208 12.5285Z" fill="#FAFAFA"/>
</svg>
