<svg width="25" height="25" viewBox="0 0 25 25" fill="none" xmlns="http://www.w3.org/2000/svg">
<path d="M4.54901 6.302L8.35401 9.65L11.744 5.476C11.8389 5.35931 11.959 5.26554 12.0952 5.20167C12.2313 5.1378 12.3802 5.10548 12.5306 5.10711C12.681 5.10875 12.8291 5.1443 12.9639 5.21111C13.0987 5.27792 13.2166 5.37428 13.309 5.493L16.544 9.649L20.472 6.253C20.6263 6.11991 20.8175 6.03711 21.0201 6.01568C21.2227 5.99425 21.427 6.03522 21.6057 6.1331C21.7844 6.23098 21.9289 6.3811 22.0199 6.56336C22.1109 6.74563 22.1441 6.95136 22.115 7.153L20.615 17.5H4.42201L2.89901 7.2C2.86876 6.99724 2.90156 6.79007 2.99296 6.60657C3.08437 6.42307 3.22996 6.27209 3.41003 6.17409C3.5901 6.07609 3.79594 6.0358 3.99966 6.05868C4.20339 6.08156 4.39517 6.1665 4.54901 6.302ZM4.50001 18.5H20.5V19.5C20.5 19.7652 20.3947 20.0196 20.2071 20.2071C20.0196 20.3946 19.7652 20.5 19.5 20.5H5.50001C5.23479 20.5 4.98044 20.3946 4.7929 20.2071C4.60537 20.0196 4.50001 19.7652 4.50001 19.5V18.5Z" fill="#175831"/>
</svg>
