<svg width="30" height="31" viewBox="0 0 30 31" fill="none" xmlns="http://www.w3.org/2000/svg">
<path d="M0 15.5C0 7.21573 6.71573 0.5 15 0.5C23.2843 0.5 30 7.21573 30 15.5C30 23.7843 23.2843 30.5 15 30.5C6.71573 30.5 0 23.7843 0 15.5Z" fill="#175831"/>
<path fill-rule="evenodd" clip-rule="evenodd" d="M13.9623 23.9875C9.4803 23.4714 6 19.6553 6 15.0235C6 10.0398 10.0293 6 15 6C19.9707 6 24 10.0398 24 15.0235C24 19.677 21.0453 19.2944 18.5226 18.9668C17.0664 18.7782 15.7551 18.6086 15.2358 19.4342C14.8803 19.9991 15.2646 20.7029 15.7353 21.1749C15.8751 21.315 15.986 21.4815 16.0617 21.6646C16.1374 21.8478 16.1763 22.0441 16.1763 22.2423C16.1763 22.4406 16.1374 22.6369 16.0617 22.8201C15.986 23.0032 15.8751 23.1697 15.7353 23.3098C15.2646 23.7818 14.6238 24.0642 13.9623 23.9875ZM14.1765 10.5118C14.1765 10.8707 14.0343 11.215 13.7811 11.4689C13.5279 11.7227 13.1845 11.8653 12.8265 11.8653C12.4685 11.8653 12.1251 11.7227 11.8719 11.4689C11.6187 11.215 11.4765 10.8707 11.4765 10.5118C11.4765 10.1528 11.6187 9.80851 11.8719 9.55467C12.1251 9.30084 12.4685 9.15823 12.8265 9.15823C13.1845 9.15823 13.5279 9.30084 13.7811 9.55467C14.0343 9.80851 14.1765 10.1528 14.1765 10.5118ZM10.05 15.9259C10.408 15.9259 10.7514 15.7833 11.0046 15.5294C11.2578 15.2756 11.4 14.9313 11.4 14.5724C11.4 14.2134 11.2578 13.8691 11.0046 13.6153C10.7514 13.3614 10.408 13.2188 10.05 13.2188C9.69196 13.2188 9.34858 13.3614 9.09541 13.6153C8.84223 13.8691 8.7 14.2134 8.7 14.5724C8.7 14.9313 8.84223 15.2756 9.09541 15.5294C9.34858 15.7833 9.69196 15.9259 10.05 15.9259ZM19.95 15.9259C20.308 15.9259 20.6514 15.7833 20.9046 15.5294C21.1578 15.2756 21.3 14.9313 21.3 14.5724C21.3 14.2134 21.1578 13.8691 20.9046 13.6153C20.6514 13.3614 20.308 13.2188 19.95 13.2188C19.592 13.2188 19.2486 13.3614 18.9954 13.6153C18.7422 13.8691 18.6 14.2134 18.6 14.5724C18.6 14.9313 18.7422 15.2756 18.9954 15.5294C19.2486 15.7833 19.592 15.9259 19.95 15.9259ZM17.25 11.8653C17.4273 11.8653 17.6028 11.8303 17.7666 11.7623C17.9304 11.6942 18.0792 11.5945 18.2046 11.4689C18.33 11.3432 18.4294 11.194 18.4972 11.0297C18.5651 10.8655 18.6 10.6895 18.6 10.5118C18.6 10.334 18.5651 10.158 18.4972 9.99379C18.4294 9.82957 18.33 9.68036 18.2046 9.55467C18.0792 9.42899 17.9304 9.32929 17.7666 9.26127C17.6028 9.19324 17.4273 9.15823 17.25 9.15823C16.892 9.15823 16.5486 9.30084 16.2954 9.55467C16.0422 9.80851 15.9 10.1528 15.9 10.5118C15.9 10.8707 16.0422 11.215 16.2954 11.4689C16.5486 11.7227 16.892 11.8653 17.25 11.8653Z" fill="#FAFAFA"/>
</svg>
