<svg width="30" height="31" viewBox="0 0 30 31" fill="none" xmlns="http://www.w3.org/2000/svg">
<path d="M0 15.5C0 7.21573 6.71573 0.5 15 0.5C23.2843 0.5 30 7.21573 30 15.5C30 23.7843 23.2843 30.5 15 30.5C6.71573 30.5 0 23.7843 0 15.5Z" fill="#175831"/>
<path d="M15.5 19.2984C15.3583 19.2984 15.2255 19.2765 15.1016 19.2326C14.9776 19.1886 14.8625 19.1132 14.7562 19.0063L10.9312 15.1813C10.7187 14.9688 10.6167 14.7208 10.6252 14.4375C10.6337 14.1542 10.7357 13.9063 10.9312 13.6938C11.1437 13.4813 11.3963 13.3708 11.6888 13.3623C11.9814 13.3538 12.2335 13.4554 12.4453 13.6672L14.4375 15.6594V8.0625C14.4375 7.76146 14.5395 7.5093 14.7435 7.306C14.9475 7.10271 15.1997 7.00071 15.5 7C15.8003 6.9993 16.0528 7.1013 16.2576 7.306C16.4623 7.51071 16.5639 7.76288 16.5625 8.0625V15.6594L18.5547 13.6672C18.7672 13.4547 19.0197 13.3527 19.3122 13.3612C19.6048 13.3697 19.8569 13.4805 20.0687 13.6938C20.2635 13.9063 20.3655 14.1542 20.3747 14.4375C20.3839 14.7208 20.2819 14.9688 20.0687 15.1813L16.2437 19.0063C16.1375 19.1125 16.0224 19.1879 15.8984 19.2326C15.7745 19.2772 15.6417 19.2991 15.5 19.2984ZM9.125 24C8.54062 24 8.04054 23.7921 7.62475 23.3763C7.20896 22.9605 7.00071 22.4601 7 21.875V19.75C7 19.449 7.102 19.1968 7.306 18.9935C7.51 18.7902 7.76217 18.6882 8.0625 18.6875C8.36283 18.6868 8.61535 18.7888 8.82006 18.9935C9.02477 19.1982 9.12642 19.4504 9.125 19.75V21.875H21.875V19.75C21.875 19.449 21.977 19.1968 22.181 18.9935C22.385 18.7902 22.6372 18.6882 22.9375 18.6875C23.2378 18.6868 23.4903 18.7888 23.695 18.9935C23.8998 19.1982 24.0014 19.4504 24 19.75V21.875C24 22.4594 23.7921 22.9598 23.3763 23.3763C22.9605 23.7928 22.4601 24.0007 21.875 24H9.125Z" fill="#FAFAFA"/>
</svg>
