<svg width="81" height="156" viewBox="0 0 81 156" fill="none" xmlns="http://www.w3.org/2000/svg">
<g clip-path="url(#clip0_3446_488)">
<path d="M70.83 63.7701C70.54 65.4401 70.83 68.0901 72.64 69.5301C78.91 74.8101 84.34 64.0301 77.64 61.2101C78.78 60.0401 82.97 59.4001 85.64 61.2101C90.64 64.5301 91.28 69.4101 90.1 75.0601C89.1 79.7701 86.96 85.0601 85 90.4701C84.63 91.5601 84.23 92.6301 83.91 93.7701C83.2918 95.5953 82.7678 97.4511 82.34 99.3301C82.2 99.9101 82.11 100.5 82.01 101.09C81.7444 102.473 81.5773 103.873 81.51 105.28C81.3618 107.537 81.5608 109.803 82.1 112C82.4 113.14 82.71 114.21 83.1 115.21C83.4756 116.306 83.9405 117.37 84.49 118.39C84.6701 118.258 84.8647 118.148 85.07 118.06C85.07 118.06 85.15 118.06 85.19 117.97C84.9897 116.191 84.9395 114.398 85.04 112.61C85.1359 110.589 85.4137 108.581 85.87 106.61C85.2388 104.802 85.1485 102.849 85.61 100.99C88 89.1901 104.69 70.0001 88.47 58.0801C84.3 55.0101 80.61 55.0801 77.64 56.3701L77.39 56.5201C76.9578 56.7433 76.5403 56.9938 76.14 57.2701C72.93 59.2201 71 62.5101 70.83 63.7701ZM76.83 60.9701V61.0001C77.0557 61.5773 77.097 62.2102 76.9484 62.8118C76.7998 63.4135 76.4685 63.9543 76 64.3601C74.22 65.5701 72.85 62.3201 76.84 61.0001L76.83 60.9701ZM77.15 60.0501L77.21 60.8901C77.4585 61.5425 77.4957 62.2566 77.3162 62.9313C77.1368 63.606 76.7498 64.2073 76.21 64.6501C75.9827 64.8351 75.7059 64.9489 75.4141 64.9774C75.1224 65.0058 74.8288 64.9476 74.57 64.8101C74.3299 64.6471 74.1399 64.4204 74.0216 64.1554C73.9032 63.8904 73.8611 63.5977 73.9 63.3101C74.02 62.2101 75.03 61.2301 76.63 60.6601L77.15 60.0501ZM74.85 64.1301L74.93 64.1901C75.0682 64.2541 75.2219 64.2769 75.3727 64.2556C75.5235 64.2343 75.665 64.1699 75.78 64.0701C76.1629 63.7606 76.446 63.345 76.5936 62.8754C76.7413 62.4057 76.747 61.9029 76.61 61.4301C74.88 62.1201 74.61 63.0901 74.61 63.4301C74.5967 63.558 74.6122 63.6873 74.6555 63.8085C74.6987 63.9296 74.7686 64.0395 74.86 64.1301H74.85ZM76.85 60.8901L76.95 61.3401C77.089 61.8833 77.0686 62.4551 76.8913 62.9871C76.7139 63.5191 76.3872 63.9888 75.95 64.3401C75.7742 64.4865 75.5596 64.5786 75.3323 64.6052C75.105 64.6319 74.8749 64.5918 74.67 64.4901C74.4836 64.3603 74.3371 64.1811 74.247 63.9727C74.1569 63.7642 74.1268 63.5347 74.16 63.3101C74.16 62.9701 74.46 61.8001 76.41 61.0201L76.85 60.8901ZM75.05 63.8301C75.18 63.9101 75.39 63.7801 75.48 63.7201C75.7508 63.5253 75.9686 63.2659 76.1136 62.9655C76.2585 62.6651 76.3261 62.3332 76.31 62.0001C75.15 62.5901 75.02 63.2801 75.01 63.4301C74.9952 63.4999 74.9965 63.5723 75.0138 63.6416C75.0311 63.7109 75.064 63.7754 75.11 63.8301H75.05Z" fill="#49622D"/>
<path d="M90.48 59C100.58 67.84 94.93 80.28 90.35 90.36C88.57 94.29 86.88 98.02 86.23 101.17C85.7934 102.949 85.8767 104.817 86.47 106.55V106.67V106.79C86.0209 108.725 85.7464 110.696 85.65 112.68C85.5497 114.441 85.5999 116.208 85.8 117.96V118.14L85.34 118.51C85.2011 118.566 85.07 118.64 84.95 118.73L84.58 119.05L84.34 118.63C83.8099 117.597 83.3619 116.523 83 115.42C82.65 114.42 82.33 113.29 82 112.17C81.4215 109.956 81.1921 107.665 81.32 105.38C81.3834 103.953 81.5539 102.532 81.83 101.13C81.92 100.56 82.01 99.95 82.16 99.35C82.5892 97.4615 83.1132 95.5959 83.73 93.76C83.98 92.9 84.27 92.06 84.56 91.24L84.83 90.46C85.27 89.23 85.72 88.02 86.16 86.83C87.7027 83.0163 88.9563 79.0919 89.91 75.09C91.27 68.64 89.91 64.49 85.62 61.66C84.5749 61.029 83.3933 60.6587 82.1749 60.5804C80.9566 60.5021 79.7373 60.718 78.62 61.21C79.4317 61.6274 80.1151 62.2569 80.5976 63.0317C81.08 63.8064 81.3435 64.6975 81.36 65.61C81.3961 66.7067 81.1262 67.7919 80.5804 68.7438C80.0347 69.6958 79.2346 70.477 78.27 71C76.51 71.84 74.52 71.46 72.68 69.9L72.52 69.77C70.59 68.09 70.52 65.24 70.73 63.77C70.94 62.3 72.85 59.04 76.23 56.99C76.6508 56.7096 77.0846 56.4493 77.53 56.21L77.73 56.09C81.46 54.47 85.23 55.09 88.99 57.81C89.52 58.23 90 58.62 90.48 59ZM85.7 106.76C85.1019 104.911 85.019 102.933 85.46 101.04C86.13 97.8 87.83 94.04 89.64 90.04C94.33 79.71 99.64 68.04 89.98 59.62C89.53 59.22 89.04 58.83 88.52 58.45C85.01 55.87 81.52 55.31 78.09 56.79L77.87 56.92C77.6186 57.0253 77.3803 57.1596 77.16 57.32C76.9914 57.4094 76.8308 57.5131 76.68 57.63C73.56 59.53 71.68 62.74 71.51 63.87C71.3267 64.8115 71.3718 65.7831 71.6415 66.7036C71.9112 67.624 72.3976 68.4664 73.06 69.16L73.17 69.26C74.78 70.6 76.46 70.95 77.93 70.26C78.7599 69.8032 79.4481 69.1268 79.919 68.3048C80.39 67.4828 80.6256 66.547 80.6 65.6C80.5823 64.7199 80.2973 63.8659 79.7829 63.1515C79.2685 62.4371 78.5491 61.896 77.72 61.6L77.19 61.38L77.59 60.97C78.93 59.61 83.35 59.06 86.07 60.97C90.65 63.97 92.07 68.5 90.69 75.21C89.7326 79.2633 88.469 83.238 86.91 87.1C86.47 88.3 86.02 89.5 85.58 90.72L85.31 91.5C85.03 92.3 84.74 93.14 84.49 93.99C83.82 96.04 83.31 97.84 82.93 99.53C82.79 100.11 82.7 100.69 82.61 101.26C82.3433 102.629 82.1762 104.016 82.11 105.41C81.9859 107.618 82.2086 109.831 82.77 111.97C83.05 113.07 83.37 114.15 83.71 115.16C84.0361 116.103 84.427 117.021 84.88 117.91L85.02 117.84C84.8322 116.12 84.7887 114.387 84.89 112.66C84.9873 110.673 85.2583 108.699 85.7 106.76Z" fill="#49622D"/>
<path d="M7.73001 -39.46L12.91 -43C12.91 -43 14.12 -42.17 15.29 -38C16.86 -32.42 18.94 -10.89 19.37 -5.44C19.8 0.0100021 22 13 28.27 18.3C34.54 23.6 38.49 22.45 42.93 23C47.37 23.55 58 14.75 54.11 6.27C50.22 -2.21 42.19 -1 42.19 -1C42.19 -1 48.93 -5.5 54.79 0.290001C60.65 6.08 57.22 14.45 52.61 19C48 23.55 41.61 26.55 35.72 25.67C29.83 24.79 26.16 21.97 21.93 14.93C17.7 7.89 14.36 -11.4 14.36 -11.4L11.94 -27.4L7.73001 -39.46Z" fill="#49622D"/>
<path d="M91.42 55.7399C92.3325 56.5463 93.1879 57.4151 93.98 58.3399C97.663 62.6293 99.5 68.2012 99.09 73.8399V73.9899C99.0374 75.0631 98.9172 76.1319 98.73 77.1899V77.3799C98.3229 79.8479 97.6731 82.2697 96.79 84.6099C96.53 85.3899 96.22 86.1799 95.92 86.9499C95.35 88.2899 94.79 89.5499 94.2 90.7799C93.39 92.4699 92.48 94.1799 91.42 96.0199C90.86 96.9599 90.31 97.8599 89.76 98.7599L89.61 98.9999C88.0798 101.387 86.9326 103.998 86.21 106.74L85.51 106.57C86.2539 103.758 87.4313 101.079 89 98.6299L89.15 98.3799C89.7 97.4899 90.26 96.5899 90.8 95.6599C91.86 93.8399 92.8 92.1399 93.56 90.4699C94.15 89.2399 94.7 88.0099 95.26 86.6799C95.56 85.9099 95.86 85.1399 96.12 84.3699C96.9857 82.0709 97.6254 79.693 98.03 77.2699C98.0127 77.1909 98.0127 77.109 98.03 77.0299C98.2131 75.985 98.33 74.9296 98.38 73.8699V73.7299C98.7561 68.3026 96.9857 62.9447 93.45 58.8099C89.72 54.4899 85.7 52.3399 81.45 52.3999C76.53 52.4799 72.23 55.6699 69.85 58.6199C68.2555 60.5447 67.2857 62.9098 67.07 65.3999L66.35 65.3499C66.5763 62.7131 67.602 60.2082 69.29 58.1699C71.77 55.0899 76.29 51.7699 81.43 51.6799C85.1553 51.7129 88.7279 53.1648 91.42 55.7399Z" fill="#49622D"/>
<path d="M81.94 62.81C82.8652 63.6359 83.6847 64.573 84.38 65.6C85.0651 66.6125 85.4245 67.8101 85.4102 69.0325C85.3959 70.2549 85.0086 71.4438 84.3 72.44C82.38 75.3 78.63 76.61 74.76 75.77C74.1996 75.6525 73.6482 75.4954 73.11 75.3L73.34 74.62C73.8487 74.8041 74.3701 74.9512 74.9 75.06C79.27 76.06 82.37 74.06 83.7 72.06C84.3331 71.1918 84.6816 70.1487 84.6978 69.0743C84.7139 67.9999 84.3968 66.9468 83.79 66.06C80.58 61.44 77.65 61.61 77.62 61.61L77.55 60.9C77.65 60.84 79.52 60.69 81.94 62.81Z" fill="#49622D"/>
<path d="M88.51 59.79C91.2196 62.2221 92.8825 65.6088 93.15 69.24C93.48 77.24 90.9 83.87 88.4 90.24C85.62 97.39 82.99 104.13 84.25 112.43C84.66 115.03 85.17 117.15 85.37 117.94C85.45 118.22 85.51 118.45 85.55 118.61L84.84 118.75C84.84 118.6 84.75 118.4 84.67 118.13C84.47 117.31 83.95 115.13 83.54 112.55C82.25 104.05 84.91 97.22 87.73 89.99C90.2 83.64 92.73 77.07 92.43 69.23C92.3047 67.4776 91.8316 65.7678 91.0384 64.2002C90.2452 62.6327 89.1477 61.2388 87.81 60.1C86.8856 59.2947 85.7998 58.6961 84.6254 58.3443C83.451 57.9925 82.2149 57.8956 81 58.06L80.9 57.35C82.2124 57.1802 83.5459 57.2922 84.8116 57.6785C86.0772 58.0648 87.246 58.7164 88.24 59.59L88.51 59.79Z" fill="#49622D"/>
<path d="M91.07 57.83C93.5587 59.9749 95.4531 62.7247 96.5705 65.8143C97.688 68.9039 97.9909 72.2293 97.45 75.47C96.69 79.75 94.76 84.11 92.9 88.32C91.04 92.53 89.2 96.68 88.59 100.59L87.88 100.48C88.51 96.48 90.32 92.38 92.24 88.03C94.09 83.85 95.99 79.54 96.74 75.35C97.4237 71.1947 96.6645 66.9306 94.5888 63.2666C92.513 59.6026 89.2457 56.7595 85.33 55.21C79.69 53.21 74.52 55.13 71.49 60.44L70.87 60.08C74.08 54.44 79.58 52.37 85.58 54.54C87.5991 55.2848 89.4611 56.4006 91.07 57.83Z" fill="#49622D"/>
<path d="M83.07 64.12C83.07 64.37 83.18 70.12 78.59 72.87C77.7115 73.3941 76.7059 73.6667 75.683 73.6578C74.6601 73.649 73.6593 73.3592 72.79 72.82C71.5841 72.0688 70.5861 71.027 69.8872 69.7901C69.1884 68.5531 68.8111 67.1606 68.79 65.74C68.79 60.97 69.85 59.8 71.4 58.02L71.94 58.5C70.44 60.21 69.54 61.24 69.51 65.74C69.5301 67.0395 69.8778 68.3129 70.5211 69.4422C71.1644 70.5715 72.0824 71.52 73.19 72.2C73.9544 72.6634 74.8311 72.9084 75.725 72.9084C76.6189 72.9084 77.4956 72.6634 78.26 72.2C82.48 69.68 82.39 64.2 82.38 64.09L83.07 64.12Z" fill="#49622D"/>
<path d="M101.87 94.28C109.06 91.89 115.21 93.35 119.28 96.28C112.16 93.64 104.6 94.16 98.14 98.82C90.08 104.82 89.52 116.12 90.7 126.26C91.86 136.96 88.8 148.8 79.37 155.33C79.0567 155.177 78.7924 154.94 78.6069 154.645C78.4214 154.35 78.322 154.009 78.32 153.66C80.2342 152.191 81.9398 150.468 83.39 148.54C86.19 144.39 90.14 136.54 88.39 126.86C85.8 112.49 90.37 98.12 101.87 94.28Z" fill="#49622D"/>
<path d="M121.64 97.54L119.15 96.62C111.77 93.88 104.38 94.76 98.35 99.11C91.87 103.91 89.49 112.77 91.06 126.22C92.41 138.72 88.12 149.71 79.57 155.63L79.39 155.75L79.19 155.65C78.8236 155.459 78.5157 155.172 78.2992 154.82C78.0826 154.468 77.9654 154.063 77.96 153.65V153.43L78.14 153.33C80.0187 151.89 81.6997 150.209 83.14 148.33C85.73 144.48 89.83 136.58 88.07 126.92C85.24 111.14 90.88 97.58 101.8 93.92C108.27 91.76 114.73 92.51 119.53 95.92L121.64 97.54ZM79.35 154.9C87.55 149.11 91.66 138.43 90.35 126.3C88.74 112.58 91.22 103.5 97.93 98.53C100.559 96.6104 103.581 95.298 106.778 94.6876C109.976 94.0772 113.269 94.1839 116.42 95C111.836 93.0489 106.681 92.913 102 94.62C91.44 98.14 86 111.38 88.76 126.79C90.56 136.7 86.37 144.79 83.76 148.79C82.311 150.694 80.6316 152.41 78.76 153.9C78.7864 154.098 78.8523 154.288 78.9536 154.46C79.055 154.632 79.1898 154.781 79.35 154.9Z" fill="#49622D"/>
<path d="M120.82 95.94C123.184 97.8715 124.872 100.505 125.64 103.46C125.945 105.091 125.855 106.771 125.377 108.36C124.898 109.948 124.045 111.399 122.89 112.59C122.147 113.463 121.179 114.116 120.092 114.479C119.005 114.843 117.839 114.902 116.72 114.65C115.419 114.399 114.201 113.83 113.174 112.992C112.148 112.154 111.346 111.074 110.84 109.85L109.94 107.21L111.48 109.54C112.233 110.691 113.338 111.568 114.63 112.041C115.922 112.513 117.332 112.555 118.65 112.16C120.169 111.74 121.514 110.844 122.488 109.605C123.461 108.365 124.012 106.846 124.06 105.27C124.073 103.302 123.441 101.384 122.26 99.81C119.18 97.13 108.88 92.05 99.06 101.42C92.47 107.7 92.92 114.19 93.48 122.42C93.7896 126.078 93.8931 129.75 93.79 133.42C93.6111 137.678 92.5912 141.858 90.7891 145.72C88.987 149.581 86.4383 153.048 83.29 155.92L83.21 155.98H83.11C81.8006 156.251 80.4404 156.129 79.2 155.63L78.68 155.35L79.16 155.01C87.49 149.25 91.67 138.51 90.35 126.28C88.74 112.56 91.22 103.48 97.93 98.51C100.56 96.5937 103.583 95.285 106.781 94.678C109.978 94.071 113.27 94.181 116.42 95C111.836 93.0488 106.681 92.913 102 94.62C91.44 98.14 86 111.38 88.76 126.79C90.56 136.7 86.37 144.79 83.76 148.79C83.2 149.56 80.39 152.92 78.58 154.02L78.06 154.34V153.73C78.06 152.6 78.59 151.17 79.83 149.37C80.03 149.09 80.23 148.77 80.4 148.48C80.4858 148.379 80.5596 148.268 80.62 148.15C81.5896 146.646 82.4389 145.068 83.16 143.43C83.6622 142.312 84.1029 141.167 84.48 140C86.0284 135.571 86.4947 130.836 85.84 126.19C85.74 125.4 85.64 124.65 85.54 123.93C85.2207 121.943 85.0104 119.94 84.91 117.93C84.8545 113.983 85.6268 110.067 87.1769 106.437C88.727 102.806 91.0207 99.5401 93.91 96.85C94.57 96.24 95.28 95.64 96.15 94.97C96.9083 94.3904 97.707 93.8658 98.54 93.4C99.2546 92.96 100.004 92.5787 100.78 92.26C102.308 91.5639 103.933 91.1053 105.6 90.9H105.67C107.263 90.6391 108.887 90.6391 110.48 90.9C111.547 91.0984 112.597 91.3793 113.62 91.74L113.86 91.85L114.11 91.95C114.287 92.0016 114.461 92.0651 114.63 92.14H114.77L115.17 92.32L115.58 92.52L115.76 92.61C117.594 93.4776 119.298 94.5986 120.82 95.94ZM121.02 97.09C119.361 95.5265 117.464 94.2371 115.4 93.27H115.14V93.11L114.91 93.01L114.55 92.84H114.41C114.261 92.773 114.107 92.7162 113.95 92.67C113.829 92.6297 113.712 92.5796 113.6 92.52L113.41 92.44C112.433 92.0949 111.429 91.8274 110.41 91.64C108.922 91.3848 107.404 91.3645 105.91 91.58L105.82 91.68V91.62C104.196 91.8204 102.611 92.2654 101.12 92.94C100.356 93.2267 99.6201 93.5814 98.92 94C98.116 94.4492 97.3441 94.9538 96.61 95.51C95.76 96.17 95.06 96.75 94.42 97.35C91.6024 99.9684 89.3646 103.148 87.8506 106.684C86.3367 110.22 85.5802 114.034 85.63 117.88C85.7338 119.856 85.9407 121.825 86.25 123.78C86.35 124.5 86.45 125.25 86.56 126.04C87.2234 130.802 86.74 135.653 85.15 140.19C84.7379 141.375 84.2605 142.537 83.72 143.67C82.9812 145.323 82.1187 146.917 81.14 148.44C81.0689 148.58 80.9817 148.711 80.88 148.83C80.7117 149.135 80.5247 149.428 80.32 149.71C79.5926 150.664 79.0592 151.751 78.75 152.91C80.3538 151.53 81.8114 149.988 83.1 148.31C85.69 144.46 89.79 136.56 88.03 126.9C85.2 111.12 90.84 97.56 101.76 93.9C108.23 91.74 114.69 92.49 119.49 95.9L121.02 97.09ZM113.49 112.33C114.462 113.139 115.62 113.692 116.86 113.94C117.854 114.166 118.891 114.116 119.859 113.795C120.826 113.474 121.688 112.895 122.35 112.12C124.69 109.44 125.56 106.58 124.93 103.61C124.352 101.257 123.117 99.1177 121.37 97.44L119.15 96.62C111.77 93.88 104.38 94.76 98.35 99.11C91.87 103.91 89.49 112.77 91.06 126.22C92.38 138.44 88.3 149.22 80.12 155.22C81.0371 155.42 81.984 155.444 82.91 155.29C89.0649 149.621 92.719 141.741 93.07 133.38C93.1779 129.737 93.0744 126.091 92.76 122.46C92.19 114.05 91.76 107.4 98.56 100.89C107.63 92.24 118.24 95.34 122.79 99.33C124.111 101.049 124.815 103.162 124.79 105.33C124.737 107.058 124.131 108.723 123.062 110.082C121.993 111.441 120.517 112.421 118.85 112.88C117.059 113.397 115.138 113.2 113.49 112.33Z" fill="#49622D"/>
<path d="M79.33 154.97L79.37 155.36L79.58 155.59L79.38 155.42L79.41 155.69L79.36 155.41L79.03 155.12L79.33 154.97Z" fill="#49622D"/>
<path d="M121.71 39.62L122 40C124.491 43.3642 126.692 46.9337 128.58 50.67L128.76 51.02L128.4 51.17C112.58 57.54 103.86 61.05 88.4 54.17C80 50.41 75 43.65 75.77 37C76.39 31.36 81 27.16 88 25.71C93.89 24.5 102.78 25.47 107.64 29.65L107.72 29.72C108.843 30.645 109.73 31.8239 110.307 33.1593C110.884 34.4947 111.136 35.9483 111.04 37.4L110.9 40.08L110.33 37.46C109.03 31.51 102.33 29.6 97.08 29.77C90.91 29.97 84.24 32.91 83.45 38.14C82.64 43.78 87.91 49.82 95.19 51.58C104.78 54 115.56 49.29 121.44 40L121.71 39.62ZM127.78 50.62C126.043 47.1995 124.037 43.9225 121.78 40.82C115.68 50.04 104.78 54.73 95.06 52.24C87.42 50.43 81.91 44 82.77 38C83.62 32.39 90.62 29.23 97.09 29C101.86 28.84 107.67 30.31 110.09 34.76C109.641 32.9796 108.64 31.3869 107.23 30.21L107.16 30.15C102.48 26.15 93.86 25.15 88.16 26.37C81.42 27.74 77.05 31.72 76.47 37C75.77 43.36 80.59 49.83 88.75 53.48C103.78 60.23 112.38 56.86 127.78 50.66V50.62Z" fill="#49622D"/>
<path d="M126.56 48.28L126.85 48.95C117.39 52.95 106.49 57.02 96.73 54.72C88.23 52.78 78.91 45.6 78.58 38C78.5326 36.5302 78.8039 35.0675 79.3753 33.7125C79.9466 32.3574 80.8045 31.1421 81.89 30.15C85.35 26.83 91.06 25.05 96.8 25.5L96.74 26.22C91.2 25.78 85.74 27.49 82.39 30.67C81.3742 31.5946 80.5716 32.7291 80.038 33.9948C79.5045 35.2605 79.2526 36.6272 79.3 38C79.61 45.16 88.82 52.18 96.89 54C106.44 56.27 117.22 52.24 126.56 48.28Z" fill="#49622D"/>
<path d="M82.72 115L83.03 115.65C80.6017 116.883 78.5072 118.684 76.9246 120.901C75.342 123.117 74.3181 125.683 73.94 128.38C73.4004 132.024 73.7476 135.745 74.9522 139.227C76.1569 142.709 78.1834 145.848 80.86 148.38L80.36 148.89C77.5992 146.281 75.5093 143.044 74.2679 139.454C73.0265 135.864 72.6705 132.027 73.23 128.27C73.6242 125.457 74.6931 122.78 76.3456 120.47C77.9981 118.159 80.1851 116.282 82.72 115Z" fill="#49622D"/>
<path d="M84.89 119.12C85.0207 119.309 85.1716 119.483 85.34 119.64C85.34 119.64 85.28 119.34 85.22 118.83C85.2141 118.807 85.2141 118.783 85.22 118.76C85.2346 118.51 85.2346 118.26 85.22 118.01C85.22 118.01 85.31 118.01 85.35 117.95C85.43 120.44 85.86 122.95 86.28 126.15C86.943 130.861 86.4664 135.662 84.89 140.15C84.4833 141.32 84.0092 142.465 83.47 143.58C82.7445 145.221 81.8919 146.802 80.92 148.31C72.82 137.72 75.49 123.69 84.52 118.44C84.61 118.67 84.74 118.91 84.89 119.12Z" fill="#49622D"/>
<path d="M85.62 117.53V117.9C85.62 118.17 85.62 118.43 85.62 118.7L85.7 118.77L85.63 118.85C85.63 119.19 85.63 119.52 85.71 119.85L85.87 120.62L85.78 120.53C85.89 121.53 86.04 122.64 86.2 123.79C86.3 124.51 86.4 125.26 86.51 126.05C87.1734 130.812 86.69 135.663 85.1 140.2C84.6879 141.386 84.2105 142.547 83.67 143.68C82.9311 145.333 82.0687 146.927 81.09 148.45L80.81 148.88L80.5 148.47C78.4989 145.909 77.0632 142.953 76.2875 139.797C75.5119 136.641 75.4139 133.357 76 130.16C76.4344 127.68 77.3899 125.32 78.8034 123.236C80.2169 121.152 82.0562 119.391 84.2 118.07L84.5 117.9L84.69 118.19C84.717 118.228 84.7404 118.268 84.76 118.31C84.7657 118.284 84.7657 118.256 84.76 118.23V117.62H85.06C85.1202 117.591 85.1842 117.571 85.25 117.56L85.62 117.53ZM85 119.85C84.837 119.695 84.6896 119.524 84.56 119.34C84.4686 119.212 84.3852 119.078 84.31 118.94C82.3318 120.223 80.6395 121.9 79.3387 123.867C78.038 125.834 77.1567 128.047 76.75 130.37C76.1826 133.377 76.2451 136.468 76.9336 139.45C77.6222 142.431 78.9216 145.237 80.75 147.69C82.2289 145.248 83.4776 142.673 84.48 140C86.0284 135.571 86.4947 130.836 85.84 126.19C85.74 125.4 85.64 124.65 85.54 123.93C85.33 122.45 85.15 121.13 85 119.85Z" fill="#49622D"/>
<path d="M81.07 148L81.19 148.14L80.67 148.64L80.56 148.5L81.07 148Z" fill="#49622D"/>
<path d="M85 118.58L85.49 119.11C85.4063 119.172 85.3292 119.242 85.26 119.32C78.33 125.32 77.26 136.48 82.79 145.26L82.18 145.64C76.5 136.56 77.6 125.02 84.75 118.81C84.8269 118.727 84.9105 118.65 85 118.58Z" fill="#49622D"/>
<path d="M85.1 119.66L85.64 120.14C80.36 126.04 79.57 135.58 83.72 143.34L83.08 143.69C78.79 135.66 79.62 125.78 85.1 119.66Z" fill="#49622D"/>
<path d="M77.21 56.21L77.56 56.84C76.63 57.35 71.99 60.09 71.99 63.38C72.055 64.1629 72.3567 64.9075 72.8551 65.5148C73.3534 66.1221 74.0248 66.5634 74.78 66.78C76.36 67.35 77.52 67.07 78.06 65.98C78.3939 65.1605 78.4392 64.2518 78.1884 63.4031C77.9377 62.5545 77.4057 61.8163 76.68 61.31L77.08 60.71C77.9426 61.3235 78.5729 62.2102 78.8687 63.2265C79.1645 64.2429 79.1086 65.3294 78.71 66.31C78.37 66.98 77.28 68.45 74.54 67.46C73.6452 67.1923 72.8531 66.6586 72.269 65.9297C71.6848 65.2009 71.3364 64.3116 71.27 63.38C71.26 59.69 76.22 56.76 77.21 56.21Z" fill="#49622D"/>
<path d="M77.07 60.7L76.62 61.26C76.5582 61.1966 76.4875 61.1427 76.41 61.1L76.74 60.46C76.8593 60.5263 76.9702 60.6069 77.07 60.7Z" fill="#49622D"/>
<path d="M77.16 60.05L77.22 60.89C77.4685 61.5425 77.5057 62.2566 77.3263 62.9313C77.1468 63.606 76.7598 64.2073 76.22 64.6501C75.9927 64.8351 75.7159 64.9489 75.4241 64.9774C75.1324 65.0058 74.8388 64.9476 74.58 64.81C74.3399 64.6471 74.1499 64.4204 74.0316 64.1554C73.9132 63.8904 73.8711 63.5977 73.91 63.3101C74.03 62.2101 75.04 61.23 76.64 60.66L77.16 60.05ZM74.86 64.13L74.94 64.1901C75.0782 64.2541 75.2319 64.2769 75.3827 64.2556C75.5335 64.2343 75.675 64.1699 75.79 64.07C76.1729 63.7606 76.456 63.345 76.6036 62.8754C76.7513 62.4057 76.757 61.9029 76.62 61.43C74.89 62.12 74.62 63.09 74.62 63.43C74.6054 63.5572 74.6194 63.6861 74.6609 63.8072C74.7024 63.9283 74.7704 64.0386 74.86 64.13Z" fill="#49622D"/>
<path d="M58.77 66.86C58.77 66.86 63.01 63.93 66.77 65.38C66.5917 67.1672 66.9392 68.9675 67.77 70.56C68.9592 72.6764 70.9068 74.2631 73.22 75C72.0084 76.0315 70.9271 77.2068 70 78.5C69.5287 79.125 69.1201 79.7949 68.78 80.5C65.01 79.12 63.1 80.5 62.28 81.5C61.48 80.2375 60.81 78.8974 60.28 77.5C59.9299 76.6898 59.6424 75.854 59.42 75C58.9723 73.3888 58.7139 71.7309 58.65 70.06C58.5815 68.992 58.6217 67.9198 58.77 66.86Z" fill="#49622D"/>
<path d="M67.13 65.14V65.41C66.9697 67.1385 67.3173 68.8762 68.13 70.41C69.2952 72.4321 71.1753 73.9447 73.4 74.65L73.97 74.85L73.51 75.25C72.3032 76.2692 71.2283 77.4348 70.31 78.72C69.8509 79.3494 69.4493 80.0187 69.11 80.72L68.97 81.01L68.67 80.9C64.99 79.55 63.27 80.9 62.57 81.81L62.26 82.23L61.98 81.78C61.1764 80.4775 60.5063 79.0972 59.98 77.66C59.6323 76.8529 59.3579 76.0162 59.16 75.16C58.699 73.5306 58.4338 71.8521 58.37 70.16C58.2987 69.0555 58.3389 67.9465 58.49 66.85V66.7L58.62 66.61C58.8 66.49 63.05 63.61 66.93 65.08L67.13 65.14ZM69.4 73.14C68.5871 72.4545 67.9089 71.6237 67.4 70.69C66.5737 69.1196 66.1998 67.3505 66.32 65.58C63.21 64.58 59.76 66.58 59.05 67.04C58.9191 68.0344 58.8889 69.0395 58.96 70.04C59.0188 71.6845 59.2739 73.3161 59.72 74.9C59.9171 75.7248 60.1847 76.5311 60.52 77.31C60.9801 78.5577 61.556 79.7596 62.24 80.9C63.11 80.02 65.01 78.9 68.51 80.03C68.8303 79.4039 69.2016 78.8053 69.62 78.24C70.4553 77.0704 71.4216 76.0001 72.5 75.05C71.3745 74.5941 70.3282 73.963 69.4 73.18V73.14Z" fill="#49622D"/>
<path d="M71.47 93.52C72.12 92.92 77.78 88.27 84.92 90.52C84.55 91.61 84.15 92.68 83.83 93.82C75.42 91.26 71.42 94.69 70.96 95.12C71.0948 94.576 71.2652 94.0416 71.47 93.52Z" fill="#49622D"/>
<path d="M85.38 90.27L85 91.42C84.73 92.23 84.44 93.06 84.19 93.91L84.09 94.26L83.74 94.15C75.5 91.64 71.64 94.98 71.22 95.37L70.31 96.23L70.61 95C70.7506 94.4423 70.9277 93.8945 71.14 93.36V93.29L71.2 93.23C71.26 93.23 77.27 87.72 85 90.15L85.38 90.27ZM83.58 93.36C83.81 92.61 84.06 91.89 84.31 91.19L84.46 90.74C77.69 88.82 72.39 93.2 71.78 93.74C71.72 93.88 71.67 94.03 71.62 94.18C73.27 93.13 77.15 91.5 83.58 93.36Z" fill="#49622D"/>
<path d="M74.33 89.8299L73.91 90.2799C73.0074 91.2635 72.2953 92.4063 71.81 93.6499L71.14 93.3899C71.584 92.2455 72.2123 91.1814 73 90.2399C72.49 90.0899 72 89.9199 71.56 89.7399C71.12 89.5599 70.9 89.4899 70.56 89.3499C70.2146 89.2449 69.8798 89.1076 69.56 88.9399H69.47C67.1361 87.7205 65.0903 86.0157 63.47 83.9399C62.9055 83.2695 62.3877 82.5612 61.92 81.8199L62.53 81.4399C62.9816 82.139 63.4793 82.8072 64.02 83.4399C65.5951 85.4605 67.5869 87.1181 69.86 88.2999C70.1798 88.4702 70.5145 88.6108 70.86 88.7199C71.1857 88.8659 71.5196 88.9927 71.86 89.0999C72.4825 89.3572 73.1246 89.5645 73.78 89.7199L74.33 89.8299Z" fill="#49622D"/>
<path d="M70.71 96.48C75.55 94.87 82.26 99.37 82.26 99.37C82.12 99.95 82.03 100.54 81.93 101.13C81.6644 102.513 81.4973 103.913 81.43 105.32C81.312 107.568 81.538 109.82 82.1 112C82.4 113.14 82.71 114.21 83.1 115.21C83.034 115.231 82.9728 115.265 82.92 115.31C75 111.56 71 105 70.62 99.12V99C70.6303 98.8435 70.6303 98.6865 70.62 98.53C70.5954 97.8454 70.6255 97.1599 70.71 96.48Z" fill="#49622D"/>
<path d="M82.67 99.21L82.61 99.45C82.48 99.99 82.39 100.54 82.3 101.09V101.18C82.0322 102.553 81.8651 103.943 81.8 105.34C81.6765 107.551 81.8992 109.768 82.46 111.91C82.75 113.02 83.06 114.09 83.4 115.1L83.5 115.41L83.2 115.54L83.02 115.74L82.73 115.64C75.46 112.17 70.73 105.84 70.27 99.14V99C70.2801 98.8635 70.2801 98.7265 70.27 98.59V98.42C70.2544 97.7518 70.2878 97.0833 70.37 96.42V96.19L70.58 96.12C75.58 94.47 82.16 98.86 82.44 99.05L82.67 99.21ZM82.51 114.73C82.24 113.89 81.99 113 81.75 112.09C81.1766 109.878 80.9472 107.592 81.07 105.31C81.1378 103.883 81.3083 102.463 81.58 101.06V101C81.66 100.53 81.74 100 81.84 99.56C80.71 98.85 75.16 95.56 71.03 96.79C70.9803 97.3653 70.9703 97.9433 71 98.52V98.69C71.01 98.8132 71.01 98.9369 71 99.06C71.29 104 74.5 110.7 82.51 114.73Z" fill="#49622D"/>
<path d="M71.31 95.1901C71.23 95.5101 71.18 95.8401 71.13 96.1901L71.07 96.5601L70.36 96.4401L70.42 96.0701C70.42 95.7301 70.53 95.3901 70.61 95.0701L71.31 95.1901Z" fill="#49622D"/>
<path d="M63.59 57.56C63.5475 57.6141 63.4969 57.6613 63.44 57.7L63.36 57.78C62.9018 58.2085 62.4865 58.6808 62.12 59.19C61.1324 60.3908 60.3823 61.7687 59.91 63.25C59.4991 64.4294 59.237 65.6556 59.13 66.9L58.41 66.83C58.5236 65.5243 58.7991 64.2378 59.23 63C59.7217 61.4387 60.5131 59.9883 61.56 58.73C61.9425 58.1881 62.378 57.6856 62.86 57.23L62.99 57.12L63.59 57.56Z" fill="#49622D"/>
<path d="M70.69 96.13L70.74 96.84L70.6 96.88L70.51 96.16L70.69 96.13Z" fill="#49622D"/>
<path d="M69.06 80.69C68.6351 81.4382 68.2995 82.2336 68.06 83.06C67.7113 84.3184 67.6027 85.6313 67.74 86.93V87.08H67.02V87C66.8775 85.6135 66.9962 84.2127 67.37 82.87C67.6054 81.9943 67.941 81.1488 68.37 80.35L69.06 80.69Z" fill="#49622D"/>
<path d="M70.89 98.67C70.89 98.74 70.89 98.8 70.89 98.85L70.23 99.16C70.2232 99.1036 70.2232 99.0465 70.23 98.99L70.89 98.67Z" fill="#49622D"/>
<path d="M71 99C73 107.46 82 111.12 82.09 111.16L81.83 111.82C81.73 111.82 72.36 108 70.3 99.17L71 99Z" fill="#49622D"/>
<path d="M70.72 98.42L70.39 98.81C70.2784 98.7212 70.2065 98.5918 70.19 98.45L70.72 98.42Z" fill="#49622D"/>
<path d="M70.93 98.4C73.1618 102.799 76.9405 106.218 81.54 108L81.32 108.69C76.5245 106.861 72.596 103.29 70.32 98.69L70.93 98.4Z" fill="#49622D"/>
<path d="M81.7 102.63L81.51 103.32C77.7925 102.047 74.577 99.6235 72.33 96.4L72.92 95.99C75.0878 99.0598 78.1559 101.38 81.7 102.63Z" fill="#49622D"/>
<path d="M71.23 95.3501L71.19 95.4L70.65 94.92L71.23 95.3501Z" fill="#49622D"/>
<path d="M71.35 93.1799L71.6 93.8599L71.12 93.3299C71.1792 93.2572 71.2596 93.2047 71.35 93.1799Z" fill="#49622D"/>
<path d="M87.9 82.13L87.76 82.84C84.7575 82.1083 81.5987 82.3696 78.7573 83.5848C75.9158 84.8 73.5449 86.9035 72 89.5801L71.37 89.24C73.014 86.4539 75.5019 84.2632 78.4736 82.985C81.4454 81.7068 84.7468 81.4073 87.9 82.13Z" fill="#49622D"/>
<path d="M78 75.67L78.28 76.34C70.8 79.56 70.09 88.54 70.08 88.62H69.36C69.34 88.48 70.07 79.07 78 75.67Z" fill="#49622D"/>
<path d="M90 74.74L90.12 75.45C71.6 78.62 71.12 88.94 71.12 89.04H70.4C70.38 88.58 70.83 78 90 74.74Z" fill="#49622D"/>
<path d="M84.46 62.82C85.27 63.5084 85.9178 64.3675 86.3569 65.3356C86.7961 66.3037 87.0156 67.357 87 68.42C87 75 78.25 76.35 78.16 76.36L78.06 75.65C78.14 75.65 86.3 74.37 86.29 68.42C86.2942 67.3244 86.0281 66.2448 85.5153 65.2766C85.0025 64.3085 84.2587 63.4819 83.35 62.87C81.8792 61.7594 80.0829 61.1653 78.24 61.18L78 60.5C78.88 60.2 81.63 60.76 83.76 62.28C84.003 62.4471 84.2366 62.6274 84.46 62.82Z" fill="#49622D"/>
<path d="M67.88 82.63L67.64 83.3C64.96 82.36 64.06 83.8 64.05 83.82L63.43 83.45C63.48 83.37 64.66 81.49 67.88 82.63Z" fill="#49622D"/>
<path d="M70.14 78.15L69.9 78.83C64.49 76.93 61.52 79.71 61.4 79.83L60.89 79.31C61 79.18 64.29 76.1 70.14 78.15Z" fill="#49622D"/>
<path d="M72 75.85L71.82 76.54C63.36 74.3 60.51 77.73 60.48 77.76L59.91 77.32C60 77.16 63 73.47 72 75.85Z" fill="#49622D"/>
<path d="M70.86 73.4L70.62 74.08C63.62 71.6 59.7 75.28 59.62 75.32L59.12 74.8C59.33 74.64 63.41 70.77 70.86 73.4Z" fill="#49622D"/>
<path d="M66.86 67.52L66.68 68.22C62.29 67.09 58.95 70.32 58.91 70.36L58.41 69.84C59.5251 68.7976 60.8768 68.0418 62.3488 67.6377C63.8208 67.2335 65.369 67.1931 66.86 67.52Z" fill="#49622D"/>
<path d="M67.06 65.13L66.82 65.4L66.81 65.75L66.52 65.65L66.75 65.38L66.76 65.03L67.06 65.13Z" fill="#49622D"/>
<path d="M67.14 62.25L66.89 62.92C62.36 61.22 59.89 63.3 59.8 63.39L59.33 62.85C59.44 62.75 62.19 60.38 67.14 62.25Z" fill="#49622D"/>
<path d="M68.23 60.43L67.85 61.04C65.997 59.9807 63.9132 59.3903 61.78 59.32V58.61C64.0476 58.6729 66.264 59.2983 68.23 60.43Z" fill="#49622D"/>
<path d="M81.53 105L81.34 105.69C76.7852 104.179 72.9632 101.014 70.63 96.82L71.26 96.46C73.5219 100.468 77.1763 103.507 81.53 105Z" fill="#49622D"/>
<path d="M82 100.77L81.81 101.46C78.9336 100.456 76.3407 98.7759 74.25 96.5601L74.77 96.0601C76.7645 98.1906 79.2452 99.8066 82 100.77Z" fill="#49622D"/>
<path d="M74.6 75.14L75.07 75.69C71.07 79.11 69.07 83.1 69.12 87.54C69.1323 87.6764 69.1323 87.8136 69.12 87.95L68.41 87.86C68.41 87.8 68.41 87.69 68.41 87.54C68.39 82.89 70.47 78.71 74.6 75.14Z" fill="#49622D"/>
<path d="M86.43 86.1001L86.29 86.8101C84.0949 86.3005 81.8067 86.3532 79.6374 86.9633C77.468 87.5734 75.4878 88.7211 73.88 90.3001L73.41 89.7601C75.1062 88.1178 77.1845 86.9233 79.4574 86.2844C81.7303 85.6455 84.1265 85.5821 86.43 86.1001Z" fill="#49622D"/>
<path d="M69.04 80.2701L68.81 80.54L68.8 80.89L68.5 80.79L68.74 80.5201L68.75 80.17L69.04 80.2701Z" fill="#49622D"/>
<path d="M62.51 81.79L62.49 81.81L61.95 81.34L62.51 81.79Z" fill="#49622D"/>
<path d="M67.9 70.24L67.74 70.94C63.26 69.87 59.2 72.88 59.16 72.94L58.73 72.36C58.9 72.2 63.1 69.09 67.9 70.24Z" fill="#49622D"/>
<path d="M71.34 46.57C71.51 46.72 71.67 46.88 71.83 47.05L72.11 47.4C72.1972 47.4578 72.2582 47.5476 72.28 47.65C72.9226 48.596 73.3343 49.6797 73.4819 50.8138C73.6296 51.948 73.509 53.1009 73.13 54.18C72.7496 55.2067 72.1216 56.1236 71.3017 56.8494C70.4818 57.5751 69.4954 58.0871 68.43 58.34C66.6426 58.824 64.7419 58.6647 63.06 57.89L62.75 57.79C59.95 56.38 57.48 52.99 58.82 47.65V47.56L58.93 47.42L59.31 47.75L59.2 47.65H59.55V47.79C58.5 51.98 59.79 55.44 63.06 57.1H63.14H63.4V57.25C64.9159 57.9489 66.6299 58.0906 68.24 57.65C69.1994 57.4388 70.0899 56.989 70.8293 56.3422C71.5687 55.6955 72.133 54.8727 72.47 53.95C72.8077 52.9675 72.9112 51.9198 72.7723 50.8902C72.6334 49.8607 72.2559 48.8778 71.67 48.02L71.6 47.92L71.29 47.53C70.7197 46.8931 69.9921 46.4172 69.18 46.15L69.4 45.46C70.1144 45.6966 70.774 46.074 71.34 46.57Z" fill="#49622D"/>
<path d="M73.35 53.19C73.35 53.19 69.47 57.67 64 56C58.53 54.33 60.27 47.69 60.29 47.63L60.98 47.82C60.92 48.06 59.43 53.82 64.21 55.31C69.21 56.87 72.76 52.79 72.79 52.75L73.35 53.19Z" fill="#49622D"/>
<path d="M71.89 47.1C72.1941 47.4393 72.3989 47.8559 72.4818 48.3039C72.5647 48.752 72.5226 49.2143 72.36 49.64C72.0028 50.897 71.245 52.003 70.2017 52.79C69.1585 53.577 67.8868 54.0018 66.58 54C61.58 54 61.47 47.51 61.47 47.45H62.19C62.19 47.69 62.31 53.25 66.59 53.29C67.7349 53.3002 68.8513 52.9338 69.7675 52.2472C70.6836 51.5605 71.3486 50.5917 71.66 49.49C71.9 48.58 71.77 47.84 71.28 47.59L71.63 46.96C71.7221 46.9957 71.8094 47.0428 71.89 47.1Z" fill="#49622D"/>
<path d="M64.14 46.8C65.0151 46.5031 65.8618 46.1282 66.67 45.68C67.535 45.4913 68.434 45.5292 69.28 45.79C72.53 48.52 63.11 54.71 64.14 46.8Z" fill="#49622D"/>
<path d="M69.56 45.56C69.9847 45.9235 70.2589 46.4321 70.3291 46.9866C70.3994 47.5412 70.2607 48.1021 69.94 48.56C69.09 50.09 66.87 51.47 65.29 50.94C64.56 50.71 63.38 49.84 63.78 46.77V46.56L63.99 46.48C64.8455 46.1902 65.6723 45.8219 66.46 45.38H66.57C67.4947 45.1779 68.4561 45.2193 69.36 45.5L69.48 45.57L69.56 45.56ZM65.08 50C65.2024 50.1151 65.3495 50.2006 65.51 50.25C66.65 50.63 68.51 49.61 69.31 48.2C69.5358 47.8896 69.6393 47.5068 69.6005 47.1249C69.5618 46.743 69.3836 46.3888 69.1 46.13C68.3502 45.9057 67.5564 45.8713 66.79 46.03C66.0442 46.424 65.2685 46.7583 64.47 47.03C64.31 48.5 64.53 49.51 65.08 50Z" fill="#49622D"/>
<path d="M69.446 45.4521L68.9722 45.9941L69.0475 46.06L69.5213 45.5179L69.446 45.4521Z" fill="#49622D"/>
<path d="M41.52 29.93C41.52 30 41.52 37.53 46.66 42.62C49.96 45.87 54.66 47.47 60.66 47.33V48.05C54.49 48.19 49.6 46.54 46.16 43.12C40.78 37.81 40.81 30.24 40.82 29.92L41.52 29.93Z" fill="#49622D"/>
<path d="M58.92 29.61C59.5155 30.1403 60.0797 30.7046 60.61 31.3C61.3348 32.1064 62.003 32.9617 62.61 33.86C62.75 34.05 62.9 34.29 63.05 34.53L63.13 34.65C63.13 34.73 63.22 34.81 63.26 34.89V34.98C64.112 36.4571 64.5539 38.1349 64.54 39.84C64.5431 40.2659 64.5063 40.6911 64.43 41.11L63.73 40.97C63.7905 40.5964 63.8206 40.2185 63.82 39.84C63.8366 38.2646 63.4291 36.7137 62.64 35.35L62.57 35.21L62.48 35.05L62.39 34.91C62.25 34.69 62.11 34.47 61.97 34.27C61.391 33.3974 60.7528 32.5654 60.06 31.78C58.8048 30.271 57.2393 29.05 55.47 28.2L55.76 27.54C56.9117 28.0666 57.9771 28.7646 58.92 29.61Z" fill="#49622D"/>
<path d="M63.12 45C62.5448 46.032 61.8315 46.9807 61 47.82L60.5 47.3C61.2859 46.5022 61.9589 45.6005 62.5 44.62L63.12 45Z" fill="#49622D"/>
<path d="M72.18 17.4299C74.532 19.5615 76.1931 22.3474 76.95 25.4299C78.24 30.4299 77.37 35.7099 74.66 39.2099C72.558 41.9963 69.8937 44.3097 66.84 45.9999L66.49 45.3699C69.4556 43.7408 72.0451 41.5057 74.09 38.8099C76.66 35.4799 77.49 30.4399 76.25 25.6499C75.07 21.0999 72.25 17.5799 68.56 15.9799C67.1933 15.3731 65.7442 14.9721 64.26 14.7899L64.34 14.0699C65.8924 14.2676 67.4081 14.6886 68.84 15.3199C70.0574 15.8433 71.1845 16.5554 72.18 17.4299ZM62.52 19.2099L62.67 19.4599C62.8575 19.7725 63.0021 20.1089 63.1 20.4599C63.5 21.9899 62.88 23.7699 61.4 25.3399C59.48 27.3399 56.63 28.5199 54.48 28.0899L54.61 27.3899C56.54 27.7599 59.11 26.7199 60.88 24.8499C62.18 23.4599 62.74 21.9299 62.4 20.6499C62.3308 20.3603 62.2161 20.0835 62.06 19.8299L61.89 19.5499L62.52 19.2099ZM64 46.4699L64.27 47.1299C63.94 47.2699 63.63 47.3899 63.39 47.4699C63.15 47.5499 61.39 47.8399 60.81 47.9199L60.3 47.9999H60.12L60 47.3199H60.15C60.3179 47.2765 60.4882 47.2432 60.66 47.2199C61.76 47.0599 62.94 46.8499 63.11 46.7999C63.28 46.7499 63.68 46.5999 64 46.4699Z" fill="#49622D"/>
<path d="M71 19.5601C73.6171 21.9712 75.1797 25.3157 75.35 28.8701C76 35.8701 71 42.5901 62.21 46.4001L61.92 45.7401C70.4 42.0601 75.26 35.6201 74.6 28.9401C73.84 20.6401 68.04 17.4801 63.3 17.2801V16.5601C66.1326 16.6582 68.8477 17.716 71 19.5601ZM62.54 19.6401C62.26 22.6401 60.9 24.5601 58.88 24.7001V23.9801C60.54 23.8701 61.62 22.2601 61.88 19.5701L62.54 19.6401Z" fill="#49622D"/>
<path d="M67.88 22.62C69.778 24.3039 71.0062 26.6148 71.34 29.13C72.21 34.82 69.25 40.3 63.8 43.13L63.47 42.49C65.9174 41.3383 67.9325 39.4341 69.2206 37.0556C70.5088 34.6772 71.0027 31.9491 70.63 29.27C70.3754 27.2057 69.458 25.2797 68.0155 23.7812C66.5729 22.2828 64.6832 21.2928 62.63 20.96L62.75 20.25C64.6475 20.5463 66.4244 21.3672 67.88 22.62Z" fill="#49622D"/>
<path d="M65.48 24.8701C66.546 25.8141 67.3081 27.053 67.67 28.4301C68.67 32.0101 67.32 36.8201 64.43 40.1301L63.89 39.6501C66.63 36.5201 67.89 31.9801 66.97 28.6501C66.6806 27.5451 66.1076 26.5348 65.3078 25.7192C64.508 24.9036 63.5091 24.311 62.41 24.0001L62.64 23.3101C63.6806 23.637 64.6459 24.1672 65.48 24.8701Z" fill="#49622D"/>
<path d="M63.08 29.14C63.4115 29.4292 63.698 29.7662 63.93 30.14C64.83 31.63 64.58 33.51 63.22 35.44L62.63 35C63.83 33.3 64.07 31.74 63.31 30.49C62.31 28.83 59.61 27.95 56.75 28.33L56.66 27.62C57.777 27.4143 58.9246 27.4433 60.0298 27.7049C61.1351 27.9666 62.1738 28.4553 63.08 29.14Z" fill="#49622D"/>
<path d="M43.46 29.45C43.46 29.45 43.46 29.5 43.46 29.53C43.4661 29.5865 43.4661 29.6434 43.46 29.7L42.74 29.75C42.7335 29.6667 42.7335 29.5832 42.74 29.5L43.46 29.45Z" fill="#49622D"/>
<path d="M43.14 29.72C43.99 29.46 44.85 29.21 45.67 28.88C46 36.39 53.3 44.45 64.09 41C64.0259 41.5893 63.8847 42.1675 63.67 42.72C63.4441 43.4128 63.1528 44.0825 62.8 44.72C52.37 46.56 44.76 40.37 43.14 29.72Z" fill="#49622D"/>
<path d="M64.51 40.53L64.45 41.08C64.3807 41.7006 64.2294 42.3092 64 42.89C63.7776 43.6209 63.4828 44.3277 63.12 45L63.04 45.16H62.86C60.6286 45.6259 58.3258 45.6339 56.0913 45.1835C53.8567 44.7332 51.7368 43.8338 49.86 42.54C46.04 39.81 43.61 35.39 42.76 29.79V29.48L43.15 29.36C43.95 29.12 44.78 28.87 45.56 28.56L46.03 28.37V28.88C46.1339 30.9129 46.6971 32.8959 47.6774 34.6798C48.6577 36.4638 50.0296 38.0024 51.69 39.18C54.11 40.88 58.2 42.53 63.98 40.71L64.51 40.53ZM62.57 44.47C62.8719 43.8848 63.1261 43.2761 63.33 42.65C63.4649 42.2921 63.5719 41.9244 63.65 41.55C61.6398 42.2205 59.5032 42.4238 57.4025 42.1446C55.3019 41.8654 53.2926 41.1109 51.5273 39.9386C49.7621 38.7662 48.2873 37.2069 47.2152 35.379C46.143 33.5511 45.5017 31.5029 45.34 29.39C44.74 29.61 44.14 29.79 43.55 29.97C44.41 35.23 46.75 39.34 50.31 41.97C52.0835 43.1833 54.0819 44.0295 56.1874 44.4589C58.2929 44.8882 60.463 44.892 62.57 44.47Z" fill="#49622D"/>
<path d="M46.03 28.8199V28.8599L45.31 28.91L46.03 28.8199Z" fill="#49622D"/>
<path d="M63.53 36.7L63.93 37.3C59.5 40.3 55.93 39.37 53.75 38.08C49.95 35.85 47.67 31.08 47.92 27.99L48.63 28.05C48.41 30.85 50.63 35.39 54.11 37.46C56.13 38.64 59.4 39.47 63.53 36.7Z" fill="#49622D"/>
<path d="M62 33.7999L62.49 34.3199C61.5795 35.2065 60.411 35.781 59.153 35.9607C57.8949 36.1404 56.6123 35.916 55.49 35.3199C53.9029 34.5078 52.5927 33.2426 51.7257 31.6848C50.8586 30.127 50.4738 28.3468 50.62 26.5699L51.33 26.6399C51.2008 28.2659 51.5564 29.8938 52.3521 31.3177C53.1477 32.7416 54.3475 33.8977 55.8 34.6399C56.788 35.179 57.9225 35.3883 59.0378 35.2372C60.1532 35.0861 61.191 34.5825 62 33.7999Z" fill="#49622D"/>
<path d="M60.19 31.21L60.5 31.86C59.6683 32.2762 58.7443 32.4735 57.8152 32.4332C56.8861 32.393 55.9826 32.1165 55.19 31.63C54.528 31.242 53.9781 30.6887 53.5942 30.0243C53.2103 29.36 53.0055 28.6073 53 27.84H53.72C53.7345 28.4805 53.9119 29.1068 54.2356 29.6597C54.5593 30.2126 55.0185 30.6738 55.57 31C56.2587 31.4248 57.0444 31.667 57.8528 31.7038C58.6612 31.7405 59.4656 31.5706 60.19 31.21Z" fill="#49622D"/>
<path d="M27.39 26.63L27.19 27.33C20.73 25.51 14.98 26.57 11.83 30.18C10.9916 31.0956 10.3489 32.1728 9.94137 33.3455C9.53384 34.5182 9.37004 35.7618 9.46 37C9.49781 37.5006 9.64666 37.9866 9.89575 38.4225C10.1448 38.8584 10.4879 39.2333 10.9 39.52C11.9889 40.137 13.1961 40.5166 14.4422 40.6338C15.6883 40.751 16.9451 40.6032 18.13 40.2C21.2 39.35 23.08 37.72 23.44 35.6C23.5657 34.6544 23.4287 33.6923 23.0442 32.8193C22.6597 31.9462 22.0425 31.1958 21.26 30.65C20.7103 30.2339 20.0505 29.9885 19.3625 29.944C18.6746 29.8996 17.9887 30.0581 17.39 30.4C15.68 31.4 15.52 32.54 15.93 33.24C16.1757 33.6173 16.5603 33.8824 17.0002 33.9779C17.4402 34.0733 17.9 33.9915 18.28 33.75L18.65 34.37C18.3811 34.539 18.0814 34.6532 17.7681 34.7059C17.4549 34.7587 17.1344 34.749 16.8249 34.6774C16.5154 34.6059 16.2232 34.4739 15.9649 34.289C15.7066 34.1041 15.4875 33.8699 15.32 33.6C14.75 32.65 14.86 31.08 17.02 29.78C17.7366 29.3639 18.5601 29.1685 19.3873 29.2183C20.2144 29.2681 21.0085 29.5609 21.67 30.06C22.5645 30.6835 23.2695 31.542 23.7071 32.5408C24.1447 33.5395 24.298 34.6397 24.15 35.72C23.92 37.12 22.85 39.64 18.33 40.89C17.0465 41.3237 15.6854 41.4793 14.3371 41.3466C12.9889 41.2138 11.6843 40.7957 10.51 40.12C10.0166 39.7776 9.60359 39.3319 9.29968 38.8138C8.99576 38.2958 8.8082 37.7178 8.75001 37.12C8.64167 35.7767 8.8113 34.4254 9.24831 33.1505C9.68532 31.8756 10.3803 30.7044 11.29 29.71C14.63 25.89 20.65 24.74 27.39 26.63Z" fill="#49622D"/>
<path d="M56.33 -3.65998C58.8779 -1.313 60.7437 1.67927 61.73 5.00002C65.29 15.66 56.41 25.28 45.8 29.27L45.54 28.6C55.84 24.72 64.47 15.46 61.05 5.23002C57.93 -4.30998 50.65 -8.36998 40.56 -6.27998C37.7663 -5.61667 35.2777 -4.03118 33.4959 -1.77949C31.7142 0.472196 30.7433 3.25866 30.74 6.13002C30.7284 7.51179 31.1119 8.86809 31.8454 10.0392C32.5789 11.2102 33.6317 12.1473 34.88 12.74C38.73 14.61 43.94 13.66 46.76 11.65C47.3477 11.2758 47.8549 10.7882 48.2518 10.2156C48.6488 9.64305 48.9276 8.99707 49.0719 8.31547C49.2163 7.63387 49.2232 6.93032 49.0924 6.246C48.9616 5.56168 48.6956 4.91032 48.31 4.33002C48.0268 3.86056 47.6501 3.45433 47.2033 3.13655C46.7565 2.81878 46.2492 2.59625 45.7128 2.48278C45.1764 2.36931 44.6224 2.36733 44.0852 2.47695C43.548 2.58657 43.039 2.80546 42.59 3.12002C42.1922 3.39291 41.8553 3.74529 41.6006 4.15493C41.3458 4.56457 41.1788 5.02257 41.11 5.50002C41.0029 6.02559 41.0026 6.56733 41.1091 7.09301C41.2156 7.6187 41.4268 8.11759 41.73 8.56002L41.15 9.00002C40.7899 8.47714 40.538 7.8875 40.4092 7.26581C40.2804 6.64412 40.2773 6.00294 40.4 5.38002C40.4868 4.80501 40.6915 4.25414 41.0012 3.76198C41.311 3.26982 41.7191 2.84699 42.2 2.52002C42.7267 2.15071 43.3237 1.89369 43.954 1.76495C44.5843 1.63621 45.2343 1.63851 45.8636 1.77169C46.4929 1.90487 47.0882 2.1661 47.6122 2.53913C48.1363 2.91215 48.5781 3.389 48.91 3.94002C49.3423 4.59917 49.6405 5.33705 49.7875 6.1115C49.9345 6.88594 49.9275 7.68176 49.7669 8.45349C49.6062 9.22522 49.2951 9.95773 48.8512 10.6092C48.4073 11.2606 47.8394 11.8182 47.18 12.25C45.3308 13.459 43.2134 14.196 41.0132 14.3965C38.813 14.597 36.5972 14.2548 34.56 13.4C33.1864 12.7566 32.0265 11.7323 31.2181 10.4488C30.4098 9.16535 29.987 7.67677 30 6.16002C30.0047 3.11598 31.0344 0.162205 32.9229 -2.2252C34.8114 -4.61261 37.4488 -6.29457 40.41 -6.99998C46.89 -8.32998 52.36 -7.12998 56.33 -3.65998Z" fill="#49622D"/>
<path d="M43 29.38L43.21 30.06C42.5536 30.2651 41.8858 30.4321 41.21 30.56C37.2697 31.4997 33.1684 31.5407 29.21 30.68L28.71 30.55C21.81 28.82 18.95 28.1 15.08 30.55C14.268 31.0298 13.6568 31.787 13.3591 32.682C13.0614 33.577 13.0972 34.5494 13.46 35.42C13.97 36.81 15.25 38.2 16.87 37.97C17.8011 37.8418 18.6707 37.4322 19.3624 36.7959C20.054 36.1596 20.5347 35.3271 20.74 34.41C20.8348 33.9344 20.7596 33.4406 20.5275 33.0147C20.2954 32.5889 19.9211 32.2581 19.47 32.08C19.2989 31.9562 19.1035 31.8699 18.8967 31.8268C18.6899 31.7837 18.4764 31.7848 18.27 31.83C18.1962 31.8524 18.1283 31.8909 18.0712 31.9428C18.0141 31.9947 17.9693 32.0586 17.94 32.13C17.873 32.2438 17.8327 32.3714 17.8223 32.5031C17.8119 32.6348 17.8317 32.7671 17.88 32.89C18.0187 33.1009 18.198 33.282 18.4075 33.4228C18.617 33.5636 18.8524 33.6612 19.1 33.71L18.92 34.41C18.217 34.2383 17.6077 33.8011 17.22 33.19C17.126 32.975 17.0833 32.7411 17.0955 32.5067C17.1076 32.2724 17.1742 32.0441 17.29 31.84C17.3553 31.6733 17.4576 31.5237 17.5893 31.4024C17.721 31.2811 17.8785 31.1914 18.05 31.14C18.3487 31.065 18.6598 31.0539 18.9631 31.1073C19.2663 31.1607 19.5549 31.2775 19.81 31.45C20.3967 31.6925 20.881 32.1312 21.1801 32.6911C21.4792 33.2511 21.5746 33.8975 21.45 34.52C21.2362 35.5955 20.6929 36.5777 19.8954 37.3303C19.098 38.083 18.086 38.5687 17 38.72C15.29 38.97 13.56 37.72 12.82 35.72C12.4097 34.6937 12.3776 33.5551 12.7293 32.5073C13.081 31.4595 13.7936 30.5709 14.74 30C18.87 27.34 22.02 28.14 28.92 29.87L29.42 30C33.27 30.8338 37.258 30.7928 41.09 29.88C41.7348 29.7462 42.3723 29.5793 43 29.38Z" fill="#49622D"/>
<path d="M55 -3C55.6926 -2.3923 56.3286 -1.72287 56.9 -0.999996C58.1754 0.494156 59.125 2.238 59.688 4.12004C60.2511 6.00208 60.4153 7.98091 60.17 9.93C59.49 14.75 56.05 19.73 50.73 23.58C43.4 28.9 31.3 29.66 21.33 25.44C12 21.52 4.22001 10.31 3.52001 -0.0599976C1.54001 -26.8 -5.60999 -35.59 -11.26 -38.22L-10.95 -38.87C-2.48999 -34.87 2.63 -21.87 4.23001 -0.119995C4.92001 10 12.55 21 21.6 24.78C31.37 28.91 43.17 28.17 50.31 23C55.47 19.26 58.8 14.46 59.46 9.83C59.6915 7.98329 59.5363 6.10861 59.0044 4.32508C58.4724 2.54156 57.5753 0.88818 56.37 -0.529995C55.373 -1.87598 54.1033 -2.99653 52.6438 -3.81846C51.1843 -4.6404 49.5679 -5.14523 47.9 -5.3C43.9912 -5.51975 40.1305 -4.35092 37 -2C35.7 -0.819996 32.66 3.57 33.28 7C33.4616 7.87353 33.8764 8.68156 34.4803 9.3383C35.0842 9.99504 35.8547 10.476 36.71 10.73C39.42 11.79 41.66 11.84 43.38 10.87C44.0367 10.4798 44.6075 9.96048 45.0578 9.34344C45.5081 8.72639 45.8287 8.02443 46 7.28C46.0533 6.88234 45.9989 6.47766 45.8423 6.10825C45.6857 5.73883 45.4328 5.41825 45.11 5.18C44.8061 5.01296 44.4574 4.94532 44.1131 4.98657C43.7687 5.02782 43.4459 5.1759 43.19 5.41C41.04 6.79 42.26 9.23 42.31 9.33L41.67 9.66C41.214 8.8576 41.0771 7.91286 41.2865 7.01402C41.4959 6.11518 42.0363 5.32824 42.8 4.81001C43.1689 4.48978 43.6295 4.29417 44.1161 4.25108C44.6027 4.20798 45.0905 4.31959 45.51 4.57C45.9485 4.88845 46.2925 5.31972 46.5056 5.81801C46.7186 6.3163 46.7927 6.86299 46.72 7.40001C46.5334 8.25737 46.1702 9.06648 45.6537 9.77581C45.1372 10.4851 44.4787 11.0791 43.72 11.52C41.81 12.6 39.36 12.57 36.44 11.42C35.4672 11.1264 34.5924 10.5741 33.909 9.82201C33.2256 9.06996 32.7594 8.14641 32.56 7.15001C31.89 3.36 35.08 -1.24 36.56 -2.52C39.8315 -5.01649 43.8925 -6.25181 48 -6C50.5958 -5.78091 53.0512 -4.7286 55 -3Z" fill="#49622D"/>
<path d="M54 -0.999973C55.9227 0.767273 57.2503 3.08706 57.8 5.64003C58.42 8.35003 58.71 13.64 53.65 18.77C51.3733 21.1067 48.643 22.9534 45.6268 24.1967C42.6105 25.4399 39.372 26.0536 36.11 26C28.2812 25.8483 20.8284 22.6142 15.37 17C9.06 10.53 7.27 0.400028 5.37 -10.33C3.7 -19.83 2 -29.67 -3.11 -37.42C-5.92 -41.75 -10.44 -44 -13.73 -45.06C-16.1142 -45.9304 -18.6672 -46.2384 -21.19 -45.96L-21.25 -46.68C-18.6295 -46.9687 -15.9778 -46.6505 -13.5 -45.75C-10.1 -44.62 -5.43 -42.32 -2.5 -37.81C2.64 -29.94 4.39 -20.02 6.09 -10.43C7.96 0.180027 9.73 10.21 15.89 16.57C21.2181 22.0294 28.4828 25.1695 36.11 25.31C39.2706 25.3596 42.4081 24.7644 45.3309 23.5609C48.2538 22.3574 50.9007 20.5707 53.11 18.31C58 13.4 57.69 8.37003 57.1 5.80003C56.26 2.14003 53.75 -0.999973 50.85 -1.99997C49.5427 -2.46707 48.149 -2.64198 46.7668 -2.5124C45.3846 -2.38282 44.0477 -1.9519 42.85 -1.24997C40.56 2.67029e-05 38.83 2.08003 38.46 4.00003C37.82 7.56003 41.73 8.79003 41.9 8.84003L41.69 9.53003C41.69 9.53003 37 8.06003 37.75 3.87003C38.16 1.74003 40 -0.529972 42.5 -1.91997C43.7864 -2.67793 45.2246 -3.14183 46.7115 -3.27841C48.1984 -3.41499 49.697 -3.22087 51.1 -2.70997C52.1669 -2.3301 53.1512 -1.74968 54 -0.999973Z" fill="#49622D"/>
<path d="M13.19 -43.22C16.1 -40.67 18.35 -28.3 19.19 -10.06C19.48 -3.05997 21.59 19.8 36.72 22.65C39.4695 23.2201 42.3228 23.0235 44.9682 22.0818C47.6136 21.14 49.9492 19.4893 51.72 17.31C53.0574 15.5582 53.8628 13.4588 54.0401 11.2619C54.2174 9.06511 53.7592 6.86363 52.72 4.92003C51.6797 2.84921 49.9357 1.21667 47.8009 0.315075C45.666 -0.586521 43.2798 -0.698212 41.07 3.05176e-05L40.83 -0.67997C43.2184 -1.4567 45.8063 -1.34988 48.1226 -0.378963C50.4388 0.591953 52.3293 2.3624 53.45 4.61003C54.5464 6.67394 55.0274 9.00914 54.836 11.3383C54.6445 13.6675 53.7887 15.8928 52.37 17.75C50.5092 20.0393 48.0551 21.7733 45.2758 22.7626C42.4965 23.7519 39.4988 23.9586 36.61 23.36C21 20.41 18.8 -2.93997 18.5 -9.99997C17.66 -27.78 15.44 -40.27 12.72 -42.65L13.17 -43.2L13.19 -43.22Z" fill="#49622D"/>
<path d="M22.65 -34.91C26.19 -29.57 25.77 -21 25.32 -12C24.71 0.349968 24.05 13.11 33.32 19.13C34.8363 20.0274 36.5307 20.582 38.2842 20.7547C40.0377 20.9275 41.8077 20.7142 43.47 20.13C45.0839 19.6723 46.5765 18.8628 47.8404 17.7597C49.1043 16.6565 50.1082 15.2872 50.78 13.75C51.6598 11.4782 51.8655 9.00093 51.3724 6.61522C50.8793 4.22951 49.7083 2.03673 48 0.299965L48.49 -0.220036C50.3188 1.61216 51.5759 3.93623 52.1085 6.46958C52.6411 9.00294 52.4262 11.6365 51.49 14.05C50.7859 15.69 49.7249 17.1523 48.3842 18.3303C47.0435 19.5084 45.4569 20.3726 43.74 20.86C41.9774 21.468 40.1035 21.6846 38.2487 21.4946C36.3938 21.3047 34.6027 20.7127 33 19.76C23.33 13.53 24 0.529964 24.6 -12C25.04 -20.93 25.46 -29.36 22.05 -34.51L22.65 -34.91Z" fill="#49622D"/>
<path d="M27.89 -28.5C29.89 -23.82 29.17 -13.29 28.63 -4.83C28.2917 -1.26733 28.1882 2.31373 28.32 5.89C28.6268 8.07518 29.3898 10.1714 30.5596 12.0424C31.7295 13.9134 33.2798 15.5173 35.11 16.75C36.2647 17.5017 37.5765 17.9783 38.9445 18.143C40.3124 18.3077 41.6999 18.1562 43 17.7C50.54 15.12 49.29 9.09 49.24 8.84L49.94 8.68C49.94 8.75 51.4 15.58 43.24 18.38C41.8326 18.8842 40.3277 19.0563 38.8429 18.8829C37.358 18.7094 35.9333 18.1951 34.68 17.38C32.7758 16.0772 31.1632 14.3929 29.9444 12.4338C28.7256 10.4748 27.9273 8.28388 27.6 6C27.4676 2.37711 27.5712 -1.25056 27.91 -4.86C28.45 -13.24 29.11 -23.68 27.23 -28.21L27.89 -28.5Z" fill="#49622D"/>
<path d="M16 -45.9301C22.77 -39.6201 23.92 -6.86005 21.25 4.06995L20.55 3.89995C23.4 -7.82005 21.62 -39.7501 15.55 -45.4401L16 -45.9301Z" fill="#49622D"/>
<path d="M8.00001 -39.63C11 -37.04 12.15 -28.93 13.64 -18.63C16.2 -1.13 19.38 20.63 33.14 25.14L32.91 25.82C18.72 21.19 15.51 -0.830002 12.91 -18.52C11.49 -28.23 10.27 -36.62 7.51001 -39.04L7.98001 -39.59L8.00001 -39.63Z" fill="#49622D"/>
<path d="M4.06 -39.56C7.83 -36.26 8.62 -28.13 9.52 -18.87C10.94 -4.20003 12.7 14.08 27 21.36L26.67 22C12 14.53 10.24 -3.95003 8.8 -18.8C7.8 -28.94 6.99 -37.72 2.27 -39.88L2.58 -40.53C3.11718 -40.2791 3.61559 -39.9525 4.06 -39.56Z" fill="#49622D"/>
<path d="M58 -4.80994C58.9838 -3.96396 59.8815 -3.02271 60.68 -1.99994L60.11 -1.55994C57.8816 -4.40756 54.9159 -6.59058 51.5348 -7.87217C48.1536 -9.15377 44.4861 -9.485 40.93 -8.82994C37.9481 -8.31885 35.1722 -6.97281 32.9243 -4.94796C30.6765 -2.92311 29.0488 -0.302433 28.23 2.61006L27.54 2.40006C28.3944 -0.639639 30.0941 -3.37438 32.4414 -5.48625C34.7887 -7.59811 37.6872 -9.00035 40.8 -9.52994C43.8374 -10.0867 46.9612 -9.95148 49.9391 -9.1343C52.9169 -8.31711 55.6722 -6.83901 58 -4.80994Z" fill="#49622D"/>
<path d="M64.94 9.17004C65.1813 11.8349 64.8401 14.5203 63.94 17.04C63.6268 18.0114 63.2112 18.9467 62.7 19.83C62.6089 20.02 62.5054 20.2038 62.39 20.38C61.497 21.9259 60.3968 23.3423 59.12 24.59C57.4905 26.1963 55.6543 27.5784 53.66 28.7L53.51 28.75V28.46L53.19 28.18L53.35 28.1C55.2887 27.0068 57.0742 25.6618 58.66 24.1C59.8704 22.8815 60.9068 21.5019 61.74 20C61.8488 19.8407 61.9457 19.6736 62.03 19.5C62.5198 18.6378 62.925 17.7303 63.24 16.79C64.1209 14.3663 64.4622 11.7794 64.24 9.21004L64.94 9.17004Z" fill="#49622D"/>
<path d="M58.71 -7.76001C59.12 -7.65001 59.53 -7.50001 59.94 -7.35001C60.35 -7.20001 60.94 -6.97001 61.42 -6.76001C62.18 -6.48001 62.91 -6.13001 63.65 -5.76001C68.14 -3.51001 72 -0.410009 74 2.50999C77.92 8.32999 81.61 15.61 86.78 16.33C87.2906 16.4048 87.8094 16.4048 88.32 16.33C88.32 16.33 82.32 14.66 81.41 10.16C81.242 8.34755 81.6856 6.53103 82.67 4.99999C83.043 4.50654 83.3774 3.98499 83.67 3.43999C86.29 0.0599909 90.88 -2.23001 96.13 1.64999C104.73 8.09999 101.34 15.07 98.43 19.2C95.52 23.33 88 27.92 80.39 24.33C74.32 21.48 70.3 14.33 64.58 9.18999C64.2991 5.70417 63.1472 2.34473 61.23 -0.580009C61 -1.00001 60.69 -1.39001 60.4 -1.77001C66.38 0.839991 70.85 5.99999 74.71 10.63C77.64 14.07 80.82 18.4 85.23 19.13C82.64 18.66 77.85 14.34 73.23 6.49999C69.9536 0.890766 64.7004 -3.29256 58.5 -5.23001C58.627 -6.06764 58.6972 -6.9129 58.71 -7.76001Z" fill="#49622D"/>
<path d="M97.61 2.4C103.01 7.12 103.39 12.84 98.76 19.4C95.9 23.4 88.35 28.4 80.24 24.61C76.4 22.81 73.42 19.36 70.24 15.71C68.3966 13.4915 66.4161 11.3908 64.31 9.42L64.2 9.33V9.22C63.9371 5.79231 62.8123 2.48664 60.93 -0.39L60.88 -0.47C60.63 -0.83 60.38 -1.2 60.11 -1.55L59.27 -2.65L60.54 -2.1C66.74 0.6 71.31 6 75 10.4L75.92 11.49C76.59 12.29 77.28 13.12 78 13.92C76.1294 11.654 74.4566 9.23184 73 6.68C69.7615 1.12257 64.5432 -3.00637 58.39 -4.88L58.09 -5V-5.31C58.2186 -6.13065 58.2888 -6.9594 58.3 -7.79V-8.25L58.75 -8.14C59.17 -8.03 59.6 -7.87 60.01 -7.72L60.14 -7.67C60.61 -7.49 61.07 -7.32 61.52 -7.12C62.27 -6.84 63.02 -6.48 63.75 -6.12C68.3 -3.83 72.22 -0.68 74.26 2.28C74.94 3.28 75.6 4.33 76.26 5.37C79.19 9.94 82.26 14.67 85.93 15.76C84.05 14.82 81.59 13.07 81.02 10.22C80.8314 8.33204 81.2783 6.43514 82.29 4.83C82.6606 4.33482 82.9948 3.81346 83.29 3.27C86.04 -0.28 90.88 -2.62 96.29 1.37C96.81 1.72 97.22 2.06 97.61 2.4ZM76.4 21.2C77.6412 22.3237 79.035 23.2664 80.54 24C88.25 27.63 95.45 22.87 98.17 19C102.94 12.23 102.17 6.68 95.94 2C89.71 -2.68 85.21 2.15 83.94 3.72C83.6508 4.26699 83.3163 4.78881 82.94 5.28C82.0323 6.72613 81.6215 8.42906 81.77 10.13C82.62 14.37 88.37 16.01 88.43 16.02L89.98 16.45L88.39 16.72C87.8429 16.8005 87.2871 16.8005 86.74 16.72C82.3 16.09 78.95 10.86 75.74 5.81C75.07 4.81 74.41 3.73 73.74 2.74C71.74 -0.14 67.95 -3.19 63.51 -5.42C62.8 -5.76 62.05 -6.12 61.31 -6.42C60.86 -6.62 60.41 -6.8 59.96 -6.97H59.83L59.08 -7.23C59.08 -6.64 59 -6.03 58.92 -5.43C65.086 -3.45146 70.308 0.727568 73.59 6.31C78.22 14.25 82.9 18.31 85.3 18.77L85.17 19.49C81.08 18.81 78 15.17 75.36 12L74.44 10.92C71.06 6.92 66.91 1.97 61.44 -0.81V-0.73C63.387 2.17552 64.5828 5.51873 64.92 9C67.0134 10.9604 68.9806 13.0512 70.81 15.26C72.5316 17.3687 74.3996 19.3536 76.4 21.2Z" fill="#49622D"/>
<path d="M94.48 5.93995C95.0521 6.4333 95.5625 6.99404 96 7.60995C96.6847 8.46694 97.1891 9.45349 97.483 10.5103C97.7768 11.5672 97.854 12.6725 97.71 13.7599C97.28 16.1099 95.56 18.2499 92.29 20.4899C87.68 23.5799 78.18 21.7099 73.65 15.1599C70.9244 11.1011 67.4814 7.57342 63.49 4.74995L63.89 4.15995C67.9442 7.0343 71.4413 10.6228 74.21 14.7499C78.52 20.9799 87.51 22.7499 91.85 19.8999C94.94 17.7699 96.57 15.7799 96.97 13.6299C97.1007 12.632 97.0263 11.6179 96.7511 10.6498C96.476 9.68168 96.006 8.77996 95.37 7.99995C93.63 5.48995 91.09 4.37995 88.58 4.99995C87.7037 5.16986 86.9005 5.60403 86.2784 6.24404C85.6563 6.88406 85.245 7.69924 85.1 8.57995C84.76 12.2399 87 12.6299 87 12.6499L86.89 13.3599C86.89 13.3599 83.89 12.8699 84.34 8.49995C84.5062 7.4806 84.9774 6.53554 85.6915 5.78934C86.4055 5.04314 87.3289 4.53083 88.34 4.31995C89.418 4.07086 90.5405 4.08821 91.6104 4.37048C92.6802 4.65275 93.6652 5.19144 94.48 5.93995Z" fill="#49622D"/>
<path d="M64.6409 8.78407L64.1666 9.32581L64.3321 9.47072L64.8064 8.92898L64.6409 8.78407Z" fill="#49622D"/>
<path d="M79.59 -7.80995C80.3686 -7.18151 80.9836 -6.37396 81.3824 -5.45625C81.7811 -4.53855 81.9519 -3.53796 81.88 -2.53995C81.63 0.730051 78.88 3.99005 76.35 5.52005L76 4.91005C78.4 3.47005 81 0.430052 81.19 -2.59995C81.2584 -3.48199 81.1121 -4.36747 80.7639 -5.18071C80.4156 -5.99395 79.8756 -6.71079 79.19 -7.26995L79 -7.40995C76.78 -9.27995 73.34 -9.85995 71.15 -8.72995C70.467 -8.38901 69.9116 -7.83755 69.5659 -7.15693C69.2202 -6.47632 69.1025 -5.7026 69.23 -4.94995C69.3045 -3.84591 69.8137 -2.81644 70.646 -2.08724C71.4783 -1.35804 72.5657 -0.988612 73.67 -1.05995C74.3707 -1.0854 75.0443 -1.33677 75.5904 -1.77652C76.1365 -2.21627 76.5257 -2.82082 76.7 -3.49995C76.7409 -3.72403 76.6912 -3.95516 76.5618 -4.14264C76.4324 -4.33012 76.234 -4.45862 76.01 -4.49995C75.8244 -4.59555 75.6187 -4.64543 75.41 -4.64543C75.2013 -4.64543 74.9956 -4.59555 74.81 -4.49995C74.6648 -4.35789 74.5494 -4.18835 74.4704 -4.00121C74.3914 -3.81407 74.3505 -3.61307 74.35 -3.40995H73.63C73.6291 -3.72563 73.6955 -4.03788 73.8248 -4.32586C73.9542 -4.61383 74.1434 -4.87091 74.38 -5.07995C74.6533 -5.25259 74.9643 -5.35643 75.2865 -5.38255C75.6087 -5.40867 75.9325 -5.35631 76.23 -5.22995C76.6176 -5.13673 76.9556 -4.90045 77.1763 -4.56849C77.397 -4.23652 77.484 -3.8334 77.42 -3.43995C77.2227 -2.58283 76.7484 -1.81463 76.0705 -1.25424C75.3926 -0.693846 74.5489 -0.372506 73.67 -0.339949C73.0286 -0.293768 72.3843 -0.37509 71.7745 -0.579221C71.1646 -0.783352 70.6012 -1.10625 70.1169 -1.52928C69.6325 -1.9523 69.2367 -2.46708 68.9523 -3.04389C68.6679 -3.6207 68.5006 -4.24813 68.46 -4.88995C68.3277 -5.78451 68.4795 -6.69803 68.8939 -7.50177C69.3083 -8.30551 69.9645 -8.95893 70.77 -9.36995C73.23 -10.6499 77 -9.99995 79.41 -7.99995L79.59 -7.80995Z" fill="#49622D"/>
<path d="M78.3 -6.69994C79.0394 -6.08017 79.5662 -5.24447 79.8065 -4.31009C80.0468 -3.37571 79.9886 -2.38954 79.64 -1.48994C78.91 0.39006 75.78 2.51006 74.11 2.86006L74 2.16006C75.61 1.80006 78.43 -0.23994 79 -1.73994C79.1815 -2.25565 79.258 -2.80245 79.225 -3.34817C79.192 -3.89388 79.0502 -4.42748 78.8079 -4.91759C78.5657 -5.40769 78.2278 -5.8444 77.8143 -6.20201C77.4008 -6.55962 76.9199 -6.83092 76.4 -6.99994C74.85 -7.59994 72.93 -7.36994 72.15 -5.47994C71.24 -3.13994 74.44 -1.06994 74.47 -0.999939L74.09 -0.389939C73.93 -0.489939 70.35 -2.80994 71.49 -5.71994C72.49 -8.04994 74.85 -8.33994 76.66 -7.63994C77.2559 -7.42162 77.8104 -7.10378 78.3 -6.69994Z" fill="#49622D"/>
<path d="M82.48 -12.25C84.0197 -10.9231 85.1561 -9.19079 85.76 -7.25002C86.2612 -5.41113 86.3635 -3.48632 86.0599 -1.60467C85.7564 0.276984 85.054 2.07199 84 3.65998L83.38 3.27998C84.3862 1.77826 85.0587 0.0781803 85.352 -1.70555C85.6452 -3.48929 85.5525 -5.31518 85.08 -7.06002C84.5923 -8.546 83.7869 -9.90794 82.7196 -11.0512C81.6524 -12.1944 80.349 -13.0915 78.9 -13.68C77.305 -14.3714 75.5708 -14.6817 73.835 -14.5862C72.0992 -14.4907 70.4096 -13.9922 68.9 -13.13C67.5444 -12.3889 66.3898 -11.3287 65.536 -10.041C64.6822 -8.75342 64.155 -7.27718 64 -5.74002V-5.62002L63.93 -5.54002L63.63 -5.78002H63.3C63.4659 -7.42997 64.0293 -9.01511 64.9419 -10.3997C65.8545 -11.7842 67.0891 -12.927 68.54 -13.73C70.15 -14.6472 71.9514 -15.1771 73.8016 -15.2778C75.6517 -15.3784 77.5 -15.0471 79.2 -14.31C80.3894 -13.7898 81.4949 -13.0955 82.48 -12.25Z" fill="#49622D"/>
<path d="M80.31 -9.99998C81.6927 -8.78936 82.7572 -7.2579 83.41 -5.53998C85.18 -0.759975 83.23 4.27003 78.08 8.26003L77.64 7.70002C82.53 3.90002 84.39 -0.829977 82.73 -5.29998C81.28 -9.20998 77.39 -12.01 73.66 -11.83C70.21 -11.66 67.66 -9.04998 66.47 -4.48998L65.77 -4.66998C67.03 -9.48998 69.89 -12.36 73.62 -12.55C76.0936 -12.5842 78.4868 -11.672 80.31 -9.99998Z" fill="#49622D"/>
<path d="M42.82 38C43.492 38.5522 43.9908 39.2863 44.2568 40.1144C44.5228 40.9425 44.5447 41.8297 44.32 42.67C44.1476 43.5267 43.6993 44.3033 43.0438 44.8812C42.3883 45.459 41.5616 45.8063 40.69 45.87C40.2614 45.8785 39.8461 45.7209 39.5311 45.4301C39.2161 45.1393 39.0258 44.7379 39 44.31C38.9367 44.0034 38.9463 43.6863 39.0279 43.384C39.1095 43.0818 39.261 42.803 39.47 42.57C39.7131 42.379 39.9936 42.2412 40.2933 42.1654C40.5931 42.0896 40.9053 42.0775 41.21 42.13L41.08 42.84C40.8877 42.8041 40.6901 42.8077 40.4993 42.8507C40.3084 42.8937 40.1284 42.9751 39.97 43.09C39.8422 43.2454 39.7522 43.4283 39.7071 43.6244C39.6619 43.8205 39.6629 44.0244 39.71 44.22C39.7176 44.3435 39.7496 44.4643 39.804 44.5755C39.8585 44.6866 39.9343 44.7859 40.0272 44.8677C40.1201 44.9494 40.2283 45.0121 40.3455 45.0519C40.4626 45.0918 40.5865 45.1081 40.71 45.1C41.4141 45.0289 42.0765 44.7327 42.5989 44.2553C43.1214 43.7779 43.4759 43.1448 43.61 42.45C43.8384 41.3563 43.6249 40.2166 43.016 39.2799C42.4071 38.3431 41.4523 37.6852 40.36 37.45C39.6547 37.2058 38.8895 37.1956 38.178 37.4208C37.4664 37.646 36.8464 38.0945 36.41 38.7C34.92 40.7 34.92 44.23 36.41 46.7C36.8126 47.4633 37.4011 48.1127 38.1213 48.5882C38.8415 49.0636 39.6699 49.3497 40.53 49.42C43.64 49.66 47.37 47.35 49.3 45.06L49.85 45.52C47.85 47.96 43.85 50.4 40.48 50.13C39.5043 50.0546 38.5632 49.7347 37.7436 49.2C36.9239 48.6652 36.2521 47.9327 35.79 47.07C34.15 44.33 34.17 40.44 35.79 38.23C36.3124 37.5126 37.0486 36.9791 37.8929 36.706C38.7373 36.4329 39.6465 36.4343 40.49 36.71C41.3594 36.9456 42.1589 37.3882 42.82 38Z" fill="#49622D"/>
<path d="M47.4 43.61C46.67 45.17 44.03 47.88 42.16 48.29C41.541 48.4231 40.9015 48.4296 40.28 48.3089C39.6584 48.1882 39.0678 47.943 38.5436 47.5879C38.0194 47.2328 37.5725 46.7753 37.2299 46.2429C36.8873 45.7105 36.656 45.1142 36.55 44.49C36.11 42.55 36.74 40.19 39.16 39.61C42.3 38.83 44.01 42.75 44.08 42.92L43.42 43.2C43.42 43.2 41.87 39.67 39.33 40.3C37.33 40.78 36.88 42.67 37.26 44.3C37.345 44.8321 37.5367 45.3416 37.8235 45.7978C38.1103 46.254 38.4864 46.6476 38.9291 46.9548C39.3718 47.2621 39.872 47.4768 40.3997 47.5859C40.9274 47.695 41.4717 47.6964 42 47.59C43.63 47.23 46.11 44.67 46.74 43.31L47.4 43.61Z" fill="#49622D"/>
<path d="M41.15 31.09V31.81C39.5149 31.7567 37.8904 32.0913 36.4095 32.7866C34.9286 33.4818 33.6334 34.5179 32.63 35.81C31.5093 37.1656 30.7154 38.7608 30.3096 40.4723C29.9039 42.1837 29.8972 43.9656 30.29 45.68C31.11 48.74 32.74 50.82 35.15 51.85C38.39 53.25 42.8 52.6 47.55 50.02L47.89 50.66C42.89 53.34 38.31 54 34.89 52.51C33.5561 51.8888 32.3853 50.9652 31.4705 49.8126C30.5558 48.66 29.9222 47.3101 29.62 45.87C29.1869 44.0512 29.1762 42.1573 29.5888 40.3337C30.0013 38.5101 30.8262 36.8053 32 35.35C33.0744 33.9612 34.4657 32.8497 36.0576 32.1086C37.6494 31.3675 39.3955 31.0182 41.15 31.09Z" fill="#49622D"/>
<path d="M41.52 33.85L41.59 34.56C36.7 35.03 33.44 37.45 32.59 41.19C32.2332 43.0214 32.4543 44.9184 33.2229 46.6185C33.9915 48.3187 35.2694 49.738 36.88 50.68C41.14 53.12 46.77 51.58 52.31 46.47L52.8 47.01C44.58 54.58 38.68 52.54 36.53 51.3C34.7904 50.2716 33.4133 48.728 32.5892 46.8828C31.7651 45.0375 31.5348 42.9818 31.93 41C32.81 37 36.3 34.35 41.52 33.85Z" fill="#49622D"/>
<path d="M78 52.2199L77.54 52.7699C76.3664 51.7 74.8165 51.1391 73.23 51.2099L73.11 50.4999C73.999 50.4412 74.8907 50.5633 75.7312 50.8589C76.5717 51.1546 77.3435 51.6176 78 52.2199Z" fill="#49622D"/>
<path d="M80.87 50.71C81.24 51.04 81.61 51.39 81.97 51.77L81.44 52.27C78.9106 49.5501 75.4281 47.9128 71.72 47.7V47C75.1013 47.1687 78.3261 48.4762 80.87 50.71Z" fill="#49622D"/>
<path d="M79.47 46.61L79.13 47.24C72.51 43.75 68.13 45.64 68.06 45.66L67.77 45C68 44.92 72.51 42.94 79.47 46.61Z" fill="#49622D"/>
<path d="M77.28 43L76.94 43.64C73.62 41.85 71.4 42.79 71.38 42.8L71.08 42.14C71.19 42.12 73.63 41.06 77.28 43Z" fill="#49622D"/>
<path d="M59.19 53.33V54.05C55.19 53.85 51.7 51.43 50.77 48.15L51.47 47.96C52.13 50.39 54.85 53.12 59.19 53.33Z" fill="#49622D"/>
<path d="M63.1 57.12V57.84C55.85 57.48 51.22 54.94 48.56 49.84L49.19 49.51C51.7 54.35 56.13 56.77 63.1 57.12Z" fill="#49622D"/>
<path d="M60.77 59.63V60.35C53.88 60.23 49.06 57.23 46.02 51.22L46.66 50.9C49.56 56.66 54.18 59.52 60.77 59.63Z" fill="#49622D"/>
<mask id="mask0_3446_488" style="mask-type:luminance" maskUnits="userSpaceOnUse" x="-9" y="0" width="92" height="187">
<path d="M82.68 0H-9V186.7H82.68V0Z" fill="white"/>
</mask>
<g mask="url(#mask0_3446_488)">
</g>
</g>
<defs>
<clipPath id="clip0_3446_488">
<rect width="81" height="156" fill="white"/>
</clipPath>
</defs>
</svg>
