<svg width="65" height="94" viewBox="0 0 65 94" fill="none" xmlns="http://www.w3.org/2000/svg">
<g clip-path="url(#clip0_3446_221)">
<path d="M62.5481 144.841L56.9513 148.601C56.9513 148.601 55.6368 147.722 54.3736 143.325C52.6586 137.382 50.4199 114.427 49.9475 108.626C49.4751 102.824 47.1542 88.8857 40.3045 83.276C33.4548 77.6663 29.2341 78.8489 24.428 78.2223C19.6219 77.5956 8.08934 87.0158 12.3203 96.0519C16.5513 105.088 25.229 103.804 25.229 103.804C25.229 103.804 17.9377 108.595 11.5912 102.43C5.2447 96.2642 8.96225 87.3696 13.9429 82.5786C18.9236 77.7876 25.8657 74.4926 32.243 75.5033C38.6203 76.5141 42.5843 79.4453 47.1748 86.9451C51.7652 94.4448 55.3903 114.963 55.3903 114.963L58.0296 132.035L62.5481 144.841Z" fill="#49622D"/>
<path d="M7.27806 31.5051C7.27806 31.5051 2.68763 34.6283 -1.3688 33.092C-1.17764 31.1829 -1.5597 29.2606 -2.46763 27.5632C-3.76109 25.32 -5.87159 23.6437 -8.37255 22.8733C-7.04236 21.767 -5.85891 20.5004 -4.85013 19.1032C-4.33801 18.428 -3.89105 17.7072 -3.5151 16.9503C0.592666 18.4159 2.64654 17.0008 3.51944 15.8586C4.39212 17.2193 5.11832 18.6657 5.68629 20.1746C6.05411 21.0215 6.34953 21.8972 6.56946 22.7924C7.06288 24.508 7.34221 26.2764 7.40128 28.0584C7.48515 29.2084 7.44384 30.3638 7.27806 31.5051Z" fill="#49622D"/>
<path d="M-1.53312 33.4457C2.66707 35.0427 7.27805 31.9498 7.47317 31.8184L7.61694 31.7274V31.5657C7.79103 30.3981 7.83578 29.2153 7.75043 28.0382C7.68617 26.236 7.40348 24.4477 6.90835 22.7115C6.68648 21.7991 6.38764 20.9066 6.01491 20.0431C5.43587 18.5061 4.6959 17.0326 3.80698 15.6463L3.50917 15.1814L3.17028 15.6261C2.41034 16.6369 0.551565 18.0216 -3.43297 16.6369L-3.76159 16.5156L-3.91564 16.8289C-4.27813 17.5686 -4.7114 18.2725 -5.20958 18.9313C-6.20527 20.2989 -7.36753 21.5413 -8.67037 22.6306L-9.17358 23.0551L-8.54714 23.2775C-6.14171 24.0264 -4.10837 25.6346 -2.84761 27.7855C-1.98605 29.4213 -1.6291 31.2692 -1.82067 33.102V33.385L-1.53312 33.4457ZM-7.69478 22.7418C-6.54058 21.7244 -5.50707 20.5817 -4.61395 19.3356C-4.15807 18.7322 -3.75281 18.0933 -3.40217 17.4253C0.376984 18.6786 2.44114 17.4253 3.38593 16.5055C4.12763 17.7179 4.75006 18.9973 5.24471 20.3261C5.60868 21.1586 5.89734 22.0211 6.10733 22.9035C6.58834 24.5908 6.8675 26.3276 6.93915 28.0786C7.01406 29.1473 6.97965 30.2207 6.83645 31.2827C6.06625 31.7577 2.32818 33.9309 -1.04019 32.8291C-0.908965 30.9426 -1.31058 29.057 -2.20063 27.3812C-2.73744 26.3946 -3.45463 25.514 -4.31614 24.7835C-5.32006 23.924 -6.46172 23.234 -7.69478 22.7418Z" fill="#49622D"/>
<path d="M-9.57408 7.03476L-9.12223 6.54959C-8.14486 5.50147 -7.37203 4.28513 -6.84241 2.96143L-6.12356 3.23432C-6.59632 4.45802 -7.27312 5.59554 -8.12609 6.60011C-7.59469 6.74164 -7.07326 6.91723 -6.56514 7.12572C-6.23651 7.24701 -5.84627 7.38852 -5.53819 7.54013C-5.18576 7.66066 -4.84257 7.8059 -4.51125 7.97475L-4.41883 8.02528C-1.86484 9.32488 0.370937 11.1563 2.13307 13.3924C2.74341 14.1046 3.30272 14.8578 3.80698 15.6464L3.14973 16.0608C2.67359 15.284 2.13803 14.544 1.54771 13.8472C-0.160669 11.6981 -2.31341 9.9307 -4.76799 8.66206C-5.09727 8.48622 -5.44075 8.33746 -5.79493 8.21732C-6.14409 8.0556 -6.51379 7.9242 -6.82187 7.80291C-7.48854 7.53285 -8.17516 7.31322 -8.87576 7.14593L-9.57408 7.03476Z" fill="#49622D"/>
<path d="M2.05091 41.4305C2.09784 41.3723 2.15319 41.3213 2.21521 41.2789L2.30765 41.198C2.79941 40.7381 3.24635 40.2339 3.64266 39.692C4.71696 38.4143 5.53268 36.9458 6.04572 35.366C6.49055 34.1086 6.77344 32.8013 6.8878 31.4746L7.66829 31.5454C7.54452 32.9237 7.24787 34.2817 6.78512 35.5884C6.24395 37.2486 5.38658 38.7922 4.25883 40.1368C3.84152 40.7141 3.36677 41.2491 2.84165 41.7337C2.80036 41.7812 2.75186 41.8221 2.69788 41.855L2.05091 41.4305Z" fill="#49622D"/>
<path d="M-2.56006 14.7063L-2.29306 13.9887C0.602916 14.9994 1.57851 13.453 1.58878 13.4429L2.2563 13.827C2.17415 13.9179 0.900735 15.9192 -2.56006 14.7063Z" fill="#49622D"/>
<path d="M-5.035 19.477L-4.77826 18.7493C1.08558 20.7708 4.29991 17.8194 4.46422 17.688L5.0085 18.2439C4.82365 18.3854 1.30124 21.6603 -5.035 19.477Z" fill="#49622D"/>
<path d="M-7.04779 21.9333L-6.85267 21.1854C2.30766 23.591 5.39876 19.932 5.47065 19.8916L6.07654 20.3667C5.90196 20.5385 2.65682 24.4703 -7.04779 21.9333Z" fill="#49622D"/>
<path d="M-5.81546 24.541L-5.55872 23.8132C2.06119 26.4614 6.27165 22.5397 6.31273 22.4993L6.85701 23.0451C6.68243 23.227 2.24604 27.3408 -5.81546 24.541Z" fill="#49622D"/>
<path d="M-1.53312 30.8078L-1.338 30.0598C3.41675 31.2626 7.03159 27.8261 7.07267 27.7856L7.61694 28.3314C7.51425 28.483 3.69402 32.1117 -1.53312 30.8078Z" fill="#49622D"/>
<path d="M-1.78985 36.4275L-1.51257 35.7099C3.38595 37.5292 6.04573 35.3056 6.15869 35.2146L6.67216 35.7907C6.54893 35.8918 3.6016 38.4187 -1.78985 36.4275Z" fill="#49622D"/>
<path d="M-2.97082 38.3682L-2.56005 37.7112C-0.552739 38.8374 1.70311 39.4653 4.01237 39.5407V40.3088C1.55701 40.2428 -0.842962 39.5759 -2.97082 38.3682Z" fill="#49622D"/>
<path d="M3.23189 15.606L3.25243 15.5757L3.83778 16.0811L3.23189 15.606Z" fill="#49622D"/>
<path d="M-2.61142 27.917L-2.43684 27.1589C2.4206 28.3112 6.80565 25.1374 6.80565 25.0667L7.27805 25.6832C7.13427 25.8247 2.57464 29.14 -2.61142 27.917Z" fill="#49622D"/>
<path d="M-6.3392 53.1351C-6.51378 52.9835 -6.68837 52.8116 -6.86295 52.6297L-7.17104 52.2557C-7.2665 52.192 -7.33284 52.0941 -7.35588 51.9828C-8.04688 50.9735 -8.49008 49.8198 -8.65048 48.613C-8.81088 47.4062 -8.6841 46.1792 -8.28014 45.0289C-7.86551 43.928 -7.17905 42.946 -6.28266 42.1714C-5.38628 41.3968 -4.30815 40.8539 -3.14542 40.5916C-1.21058 40.072 0.848776 40.2439 2.66708 41.0768L3.00597 41.188V41.2385C6.0868 42.7344 8.71578 46.2923 7.26779 52.0435V52.1344L7.15483 52.2962L6.74404 51.9323L6.857 52.0435H6.47704V51.8919C7.61695 47.4345 6.22031 43.7452 2.67735 41.9663H2.58492H2.30765V41.8046C0.664556 41.0564 -1.19486 40.906 -2.94002 41.38C-3.98046 41.6044 -4.9462 42.0845 -5.74711 42.7756C-6.54803 43.4667 -7.15803 44.3462 -7.52019 45.3321C-7.88709 46.3788 -7.99924 47.4957 -7.84763 48.5929C-7.69602 49.6901 -7.28488 50.737 -6.64729 51.6493L-6.57541 51.7504C-6.48298 51.8818 -6.37001 52.0132 -6.24678 52.1648C-5.6279 52.8456 -4.8382 53.3544 -3.9567 53.6405L-4.19289 54.3682C-4.98796 54.1092 -5.71909 53.6891 -6.3392 53.1351Z" fill="#49622D"/>
<path d="M-8.51633 46.0902C-8.51633 46.0902 -4.30587 41.3094 1.60932 43.1186C7.52451 44.9279 5.63494 51.9728 5.62467 52.0436L4.87501 51.8414C4.93663 51.5887 6.54892 45.4838 1.37313 43.8565C-4.03886 42.1887 -7.86935 46.535 -7.9207 46.5855L-8.51633 46.0902Z" fill="#49622D"/>
<path d="M-6.93483 52.5794C-7.26201 52.2161 -7.48188 51.7716 -7.57059 51.2941C-7.6593 50.8166 -7.61345 50.3242 -7.43804 49.8705C-7.05344 48.5327 -6.2332 47.3562 -5.10335 46.5217C-3.97349 45.6872 -2.59652 45.2409 -1.18396 45.2514C4.22802 45.3019 4.35126 52.165 4.35126 52.2357H3.60159C3.60159 51.983 3.47836 46.0499 -1.16342 46.0095C-2.40184 46.0016 -3.60895 46.3923 -4.60082 47.1222C-5.59269 47.8521 -6.31495 48.8811 -6.65757 50.0525C-6.90403 51.0632 -6.77052 51.8213 -6.24678 52.074L-6.62676 52.7512C-6.73319 52.7006 -6.8361 52.6433 -6.93483 52.5794Z" fill="#49622D"/>
<path d="M1.46555 52.8927C0.517899 53.2106 -0.399595 53.6096 -1.27638 54.0854C-2.21579 54.2884 -3.19278 54.2466 -4.11074 53.9641C-7.63315 51.0632 2.57465 44.463 1.46555 52.8927Z" fill="#49622D"/>
<path d="M-4.3572 54.2774L-4.2237 54.3482C-3.22676 54.6584 -2.16482 54.7072 -1.14287 54.4896H-1.04018C-0.213637 54.0118 0.652006 53.6027 1.54772 53.2666L1.77365 53.1858V52.9533C2.20496 49.6785 0.921277 48.7587 0.130531 48.506C-1.57419 47.9501 -3.97723 49.4157 -4.90148 51.043C-5.24318 51.5304 -5.39021 52.1247 -5.31442 52.7122C-5.23862 53.2997 -4.94534 53.839 -4.49071 54.2269L-4.3572 54.2774ZM1.10614 52.6299C0.238301 52.9369 -0.603087 53.3121 -1.40988 53.7518C-2.24204 53.9139 -3.10166 53.8757 -3.91563 53.6406C-4.22146 53.3625 -4.41328 52.9838 -4.45491 52.576C-4.49653 52.1682 -4.38506 51.7595 -4.14154 51.4271C-3.28918 49.9312 -1.25583 48.8496 -0.0337682 49.2438C0.137326 49.3052 0.296931 49.394 0.438617 49.5066C1.04451 50.0019 1.27045 51.0834 1.10614 52.6097V52.6299Z" fill="#49622D"/>
<path d="M25.9581 70.8839C25.9581 70.8031 25.9581 62.7979 20.3921 57.35C16.8183 53.8932 11.7144 52.185 5.25497 52.2962V51.528C11.9404 51.3764 17.2394 53.1452 20.9672 56.7839C26.79 62.4442 26.7591 70.5201 26.7489 70.8536L25.9581 70.8839Z" fill="#49622D"/>
<path d="M7.11374 71.2176C6.47141 70.6513 5.86117 70.0507 5.28578 69.4185C4.51483 68.5575 3.80459 67.6457 3.16002 66.6894C3.01624 66.4873 2.85193 66.2346 2.68762 65.9718L2.5952 65.8404L2.45142 65.5877V65.4866C1.52599 63.9157 1.05042 62.1273 1.07531 60.3116C1.06658 59.8609 1.10443 59.4105 1.18827 58.9673L1.94822 59.1088C1.8759 59.5056 1.84494 59.9086 1.8558 60.3116C1.82935 61.9916 2.26585 63.6472 3.11893 65.1025C3.15071 65.1471 3.17821 65.1945 3.20109 65.2441L3.29351 65.4159L3.39621 65.5675C3.55025 65.8101 3.70429 66.0425 3.85833 66.2548C4.4797 67.1866 5.16597 68.0748 5.91222 68.9131C7.27325 70.5183 8.96813 71.8177 10.8826 72.7236L10.5745 73.4312C9.31328 72.8708 8.14627 72.1244 7.11374 71.2176Z" fill="#49622D"/>
<path d="M2.57465 54.8433C3.19831 53.7372 3.96839 52.7176 4.86473 51.811L5.39874 52.3669C4.56321 53.2248 3.84512 54.1864 3.2627 55.2274L2.57465 54.8433Z" fill="#49622D"/>
<path d="M-3.587 86.4596C-2.03807 87.1324 -0.398609 87.5818 1.28071 87.7938L1.37313 87.0256C-0.23317 86.8307 -1.80103 86.4015 -3.27892 85.7521C-7.30453 84.054 -10.334 80.3041 -11.6177 75.4525C-12.963 70.3482 -12.0593 64.971 -9.266 61.4233C-7.05496 58.5516 -4.2561 56.1688 -1.05045 54.4288L-1.42015 53.7516C-4.72411 55.5415 -7.61024 57.9931 -9.89243 60.9482C-12.8192 64.688 -13.7743 70.3179 -12.3673 75.6446C-11.5648 78.9397 -9.77611 81.922 -7.23265 84.2056C-6.14583 85.1415 -4.9154 85.9022 -3.587 86.4596ZM3.94049 81.9213L3.75563 81.6181C3.58442 81.3504 3.45949 81.0567 3.38593 80.7488C3.0265 79.3843 3.62213 77.7166 5.03931 76.2712C6.94942 74.2497 9.73244 73.1682 11.8171 73.5624L11.9609 72.8144C9.64002 72.3596 6.54892 73.5725 4.46422 75.7456C2.87246 77.4235 2.19469 79.3136 2.626 80.9409C2.72443 81.3269 2.88383 81.6952 3.09839 82.0325L3.2627 82.2953L3.94049 81.9213ZM2.57465 52.9127C2.74923 52.8521 4.04318 52.6297 5.22417 52.4579L5.78899 52.3568H5.94302L5.86087 51.5886H5.65548C5.47641 51.6336 5.29462 51.6674 5.1112 51.6897C4.49504 51.7807 2.66708 52.0536 2.31792 52.1749C1.96876 52.2962 1.72229 52.377 1.35259 52.5286L1.65041 53.2362C1.95849 53.1048 2.27684 52.9936 2.57465 52.9127Z" fill="#49622D"/>
<path d="M2.33846 85.1254V84.3674C-2.79625 84.1551 -9.08114 80.7691 -9.89243 71.9351C-10.6216 64.8093 -5.35334 57.9463 3.82753 54.0246L3.51944 53.3271C-5.99005 57.3702 -11.4226 64.5364 -10.6729 72.0059C-10.4904 75.7911 -8.80069 79.3532 -5.96951 81.9214C-3.65205 83.8899 -0.720904 85.0204 2.33846 85.1254ZM4.00211 81.9214C4.26911 79.0508 5.45009 77.3426 7.23697 77.2112V76.4431C5.05985 76.6048 3.58106 78.6162 3.28325 81.8506L4.00211 81.9214Z" fill="#49622D"/>
<path d="M-2.56006 78.667C-4.60945 76.8653 -5.93855 74.4031 -6.3084 71.7231C-7.25319 65.6586 -4.04912 59.8265 1.90714 56.8347L2.26656 57.522C-0.383773 58.7495 -2.56583 60.7789 -3.96078 63.3139C-5.35573 65.8489 -5.89048 68.7565 -5.48686 71.6119C-5.21423 73.8087 -4.22507 75.8592 -2.66783 77.4557C-1.11059 79.0522 0.930725 80.1085 3.14973 80.4661L3.01623 81.2242C0.950635 80.9032 -0.981644 80.0171 -2.56006 78.667Z" fill="#49622D"/>
<path d="M0.00729513 76.2713C-1.1491 75.2684 -1.97509 73.9486 -2.36494 72.481C-3.39188 68.6603 -1.98497 63.5358 1.1472 60.0083L1.73255 60.5137C-1.23531 63.8492 -2.61142 68.6906 -1.60501 72.2788C-1.28818 73.4537 -0.666141 74.5272 0.199925 75.3938C1.06599 76.2604 2.14629 76.8902 3.33459 77.2214L3.08812 77.9492C1.9557 77.6024 0.907285 77.0315 0.00729513 76.2713Z" fill="#49622D"/>
<path d="M2.57465 71.723C2.21567 71.4183 1.90729 71.0602 1.66068 70.6617C0.68508 69.0849 0.962354 67.0736 2.43088 65.0217L3.06758 65.4665C1.76336 67.2757 1.50663 68.9435 2.32818 70.2675C3.42701 72.0364 6.33326 72.9865 9.43462 72.5721L9.53732 73.3301C8.3269 73.5493 7.08351 73.5196 5.88528 73.243C4.68705 72.9665 3.55989 72.449 2.57465 71.723Z" fill="#49622D"/>
<path d="M23.8529 71.3895C23.8529 71.3895 23.8529 71.3289 23.8529 71.3087C23.8422 71.2485 23.8422 71.1869 23.8529 71.1267L24.6334 71.0762V71.339L23.8529 71.3895Z" fill="#49622D"/>
<path d="M24.2021 71.0963C23.2778 71.3692 22.3536 71.6522 21.4601 71.9857C21.1623 63.9907 13.2446 55.3993 1.51691 59.038C1.58471 58.4079 1.73664 57.7894 1.96876 57.1984C2.21106 56.4455 2.52749 55.7176 2.91355 55.0253C14.2099 53.1453 22.446 59.7556 24.2021 71.0963Z" fill="#49622D"/>
<path d="M1.62987 59.4019C7.88395 57.4511 12.3306 59.2098 14.9801 61.0292C16.7837 62.2811 18.2752 63.9194 19.3425 65.8207C20.4097 67.722 21.0249 69.8368 21.1418 72.006V72.5417L21.6553 72.3496C22.5076 72.0262 23.401 71.7533 24.2637 71.4905L24.6847 71.3692V71.0457C23.7502 65.0722 21.1212 60.3621 16.9929 57.4511C13.1624 54.7221 8.305 53.7518 2.93409 54.6513H2.74924L2.65681 54.8131C2.27085 55.5208 1.95117 56.2618 1.70175 57.0266C1.45453 57.6462 1.29222 58.2954 1.21909 58.9571L1.14721 59.5535L1.62987 59.4019ZM16.4384 58.0677C20.2997 60.8371 22.826 65.2238 23.7605 70.8335C23.1238 71.0255 22.4665 71.2176 21.8196 71.45C21.6417 69.2 20.9458 67.0194 19.7845 65.0734C18.6233 63.1274 17.0271 61.4671 15.1171 60.2184C13.2071 58.9697 11.0334 58.1653 8.76063 57.8662C6.48788 57.5671 4.17578 57.7812 1.99957 58.4922C2.07703 58.0923 2.19044 57.6999 2.33846 57.3197C2.55531 56.6509 2.83018 56.0016 3.16002 55.3791C5.44364 54.9332 7.79479 54.9413 10.0752 55.403C12.3555 55.8648 14.519 56.7708 16.4384 58.0677Z" fill="#49622D"/>
<path d="M21.0802 72.0667V72.0161L21.8504 71.9656L21.0802 72.0667Z" fill="#49622D"/>
<path d="M2.1228 63.6571L1.69149 63.0204C6.48731 59.8466 10.3383 60.8169 12.7106 62.1915C16.8183 64.5668 19.2933 69.661 19.0263 72.946L18.2561 72.8853C18.4923 69.8531 16.1303 65.052 12.3203 62.8486C10.133 61.5952 6.59 60.7058 2.1228 63.6571Z" fill="#49622D"/>
<path d="M3.74537 66.76L3.21136 66.194C4.21124 65.2567 5.48642 64.6543 6.85485 64.4728C8.22327 64.2913 9.61496 64.54 10.8313 65.1833C12.5523 66.0473 13.9733 67.3957 14.9133 69.0571C15.8533 70.7184 16.2698 72.6175 16.1098 74.5125L15.3293 74.4418C15.4774 72.7021 15.0966 70.9583 14.2353 69.4321C13.3741 67.9059 12.0712 66.6662 10.4924 65.8706C9.41847 65.2911 8.18437 65.0648 6.97047 65.2248C5.75657 65.3848 4.62649 65.9228 3.74537 66.76Z" fill="#49622D"/>
<path d="M5.73763 69.5094L5.39874 68.8221C6.29925 68.3782 7.29988 68.1675 8.30612 68.2099C9.31235 68.2524 10.291 68.5466 11.1496 69.0647C11.861 69.4818 12.4499 70.0739 12.8586 70.7827C13.2673 71.4915 13.4817 72.2927 13.4808 73.1077H12.7003C12.6915 72.4246 12.507 71.7549 12.164 71.161C11.821 70.5671 11.3307 70.0685 10.7388 69.7116C9.99199 69.2607 9.14035 69.0055 8.26495 68.9701C7.38955 68.9347 6.51953 69.1204 5.73763 69.5094Z" fill="#49622D"/>
<path d="M41.2596 74.3914L41.4752 73.6535C48.479 75.5942 54.692 74.452 58.1117 70.6213C59.0234 69.6419 59.7215 68.4892 60.1631 67.2341C60.6046 65.979 60.7802 64.6481 60.6791 63.3236C60.6372 62.7911 60.4753 62.2745 60.2053 61.8112C59.9353 61.3479 59.564 60.9496 59.1181 60.6451C57.94 59.9867 56.6335 59.5815 55.2847 59.4561C53.9359 59.3306 52.5754 59.4878 51.2928 59.9174C47.9655 60.8169 45.9219 62.5655 45.5419 64.8195C45.4044 65.8277 45.5521 66.8537 45.9688 67.7846C46.3856 68.7155 47.0551 69.5152 47.9039 70.0957C48.4977 70.5414 49.2119 70.805 49.9571 70.8535C50.7023 70.9021 51.4455 70.7334 52.0938 70.3686C53.9423 69.2669 54.1477 68.0843 53.665 67.3363C53.3999 66.9327 52.9832 66.6487 52.506 66.5464C52.0288 66.4441 51.5299 66.5319 51.1182 66.7905L50.728 66.1335C51.019 65.9534 51.3433 65.8316 51.6823 65.7753C52.0213 65.7189 52.3683 65.7291 52.7032 65.8052C53.0382 65.8813 53.3546 66.0218 53.6342 66.2186C53.9139 66.4155 54.1512 66.6648 54.3326 66.9522C54.9487 67.963 54.8358 69.6408 52.4841 70.9952C51.7108 71.4403 50.8205 71.6491 49.9263 71.5952C49.0322 71.5412 48.1745 71.2268 47.4623 70.692C46.4862 70.0265 45.7175 69.1067 45.2424 68.0357C44.7672 66.9646 44.6042 65.7845 44.7717 64.6275C45.0182 63.1417 46.1786 60.4531 51.0771 59.1189C52.4662 58.6585 53.9387 58.4935 55.3974 58.6346C56.8561 58.7757 58.2677 59.2198 59.5392 59.9376C60.0783 60.3042 60.529 60.7832 60.8591 61.3404C61.1892 61.8976 61.3907 62.5195 61.4493 63.1619C61.5638 64.5946 61.3787 66.0352 60.9053 67.3946C60.432 68.7541 59.6804 70.0036 58.6971 71.066C55.0822 75.1898 48.5611 76.4129 41.2596 74.3914Z" fill="#49622D"/>
<path d="M9.91728 106.675C7.16441 104.19 5.1454 101.019 4.07399 97.4972C0.212688 86.1364 9.82486 75.8873 21.3266 71.6321L21.6039 72.3497C10.4513 76.4736 1.06504 86.3587 4.81338 97.2546C8.19202 107.362 16.1097 111.708 27.0056 109.475C30.0293 108.764 32.7221 107.073 34.6502 104.673C36.5783 102.273 37.6295 99.3036 37.6345 96.2439C37.6519 94.7657 37.2384 93.3136 36.443 92.0596C35.6476 90.8056 34.5037 89.8023 33.1467 89.1686C28.9773 87.1471 23.3292 88.1579 20.2791 90.331C19.6434 90.7306 19.0949 91.2509 18.6658 91.8614C18.2366 92.472 17.9353 93.1605 17.7794 93.887C17.6236 94.6134 17.6164 95.3631 17.7582 96.0922C17.8999 96.8214 18.1879 97.5156 18.6052 98.134C18.913 98.6288 19.3197 99.0567 19.8009 99.3918C20.282 99.7269 20.8274 99.9621 21.4038 100.083C21.9802 100.204 22.5756 100.208 23.1538 100.096C23.732 99.9831 24.2808 99.7559 24.7669 99.4278C25.198 99.1373 25.563 98.7617 25.8388 98.325C26.1146 97.8882 26.2951 97.3998 26.3689 96.8908C26.4858 96.3304 26.4869 95.7525 26.3722 95.1916C26.2576 94.6308 26.0294 94.0983 25.7014 93.626L26.3278 93.1712C26.7177 93.7272 26.9904 94.3544 27.1297 95.0158C27.269 95.6773 27.2722 96.3595 27.1391 97.0222C27.0428 97.6324 26.8198 98.2165 26.4841 98.7382C26.1485 99.2598 25.7072 99.7079 25.1879 100.054C24.6149 100.439 23.9687 100.706 23.2882 100.838C22.6077 100.97 21.907 100.965 21.2285 100.823C20.55 100.682 19.9077 100.406 19.3403 100.013C18.773 99.6207 18.2923 99.1189 17.9274 98.5383C17.4518 97.8386 17.1226 97.0525 16.9591 96.2261C16.7955 95.3998 16.8009 94.5496 16.9749 93.7253C17.1489 92.901 17.4881 92.1191 17.9725 91.4253C18.457 90.7314 19.077 90.1395 19.7965 89.6841C21.797 88.3943 24.0889 87.6082 26.4706 87.395C28.8522 87.1817 31.2507 87.5478 33.4548 88.4611C34.9392 89.1459 36.1927 90.2357 37.0665 91.6009C37.9403 92.9662 38.3976 94.5496 38.3841 96.163C38.374 99.4088 37.2541 102.557 35.2049 105.1C33.1558 107.643 30.2965 109.433 27.0878 110.182C20.1456 111.658 14.2202 110.384 9.91728 106.675Z" fill="#49622D"/>
<path d="M24.315 71.4601L24.0891 70.7323C24.695 70.5504 25.383 70.3786 26.2559 70.2068C30.5215 69.2053 34.9612 69.1604 39.2468 70.0754L39.7911 70.2168C47.2569 72.0665 50.348 72.8246 54.5482 70.2168C55.4294 69.706 56.0929 68.8983 56.4157 67.9432C56.7386 66.9881 56.699 65.9502 56.3043 65.0216C55.7497 63.5459 54.3634 62.0601 52.6176 62.3027C51.6076 62.4357 50.6634 62.8704 49.9123 63.5482C49.1613 64.226 48.6395 65.1142 48.4174 66.093C48.3175 66.6002 48.4003 67.1259 48.6514 67.5796C48.9025 68.0334 49.3063 68.3869 49.7935 68.5794C49.9787 68.7096 50.1891 68.801 50.4117 68.848C50.6343 68.8949 50.8643 68.8964 51.0874 68.8524C51.1687 68.8296 51.2436 68.7885 51.3059 68.7324C51.3683 68.6763 51.4166 68.6066 51.4468 68.5289C51.524 68.4097 51.5707 68.274 51.5833 68.1332C51.5958 67.9925 51.5736 67.8508 51.5187 67.7203C51.3688 67.494 51.1743 67.2997 50.9468 67.1486C50.7193 66.9976 50.4633 66.893 50.194 66.8409L50.3891 66.093C51.1511 66.2753 51.8106 66.7431 52.2273 67.3969C52.3294 67.6269 52.3761 67.8771 52.3636 68.1279C52.3511 68.3786 52.2799 68.6231 52.1554 68.8422C52.0841 69.0184 51.9731 69.1763 51.8308 69.3041C51.6885 69.4319 51.5186 69.5263 51.3339 69.5801C51.0121 69.6627 50.6761 69.6765 50.3484 69.6208C50.0207 69.565 49.709 69.4408 49.4341 69.2566C48.7975 68.9983 48.2715 68.5307 47.9457 67.9336C47.6199 67.3366 47.5144 66.6468 47.6472 65.9818C47.8907 64.8366 48.4901 63.7943 49.3622 62.9993C50.2344 62.2043 51.3361 61.6959 52.5149 61.5446C54.3634 61.2818 56.2324 62.5553 57.0334 64.7588C57.4741 65.8455 57.5096 67.0508 57.1337 68.1609C56.7577 69.2709 55.9946 70.2141 54.9795 70.8233C50.5123 73.6534 47.0926 72.8448 39.5754 70.9547L39.0414 70.8233C34.8708 69.9336 30.5503 69.9785 26.3997 70.9547C25.5679 71.1265 24.9004 71.2883 24.315 71.4601Z" fill="#49622D"/>
<path d="M11.3242 105.967C10.5731 105.314 9.88548 104.593 9.27032 103.814C7.89564 102.224 6.87323 100.369 6.26848 98.3671C5.66372 96.3657 5.48992 94.262 5.75819 92.1907C6.49758 87.0561 10.2254 81.7496 16.0276 77.6459C23.9659 71.9756 37.0594 71.1569 47.8628 75.6244C57.9269 79.8089 66.3478 91.7965 67.1591 102.814C69.2951 131.317 77.0485 140.676 83.1588 143.486L82.8302 144.184C73.6596 139.929 68.1141 126.061 66.3991 102.874C65.6597 92.0694 57.3929 80.4154 47.5856 76.332C37.0183 71.9352 24.2329 72.7236 16.5 78.2322C10.9134 82.2247 7.25751 87.3289 6.60027 92.2715C6.34562 94.2402 6.51092 96.2394 7.08559 98.1416C7.66027 100.044 8.6317 101.807 9.93784 103.319C11.0217 104.746 12.3981 105.934 13.9778 106.804C15.5576 107.675 17.3055 108.209 19.1084 108.373C23.3405 108.597 27.5167 107.34 30.8977 104.825C32.3252 103.592 35.6114 98.9122 34.9439 95.233C34.7463 94.3023 34.2964 93.4415 33.6419 92.7421C32.9874 92.0428 32.1526 91.5309 31.2263 91.2608C28.2893 90.1287 25.8657 90.0782 24.0378 91.1092C23.3223 91.528 22.7004 92.0851 22.2097 92.747C21.7191 93.4088 21.3697 94.1617 21.1828 94.9601C21.1294 95.3846 21.1905 95.8155 21.36 96.2094C21.5294 96.6033 21.8013 96.9463 22.1482 97.204C22.476 97.3725 22.8482 97.4386 23.2152 97.3935C23.5822 97.3483 23.9265 97.1941 24.2021 96.9513C26.523 95.4756 25.229 92.9083 25.1571 92.7668L25.8452 92.4231C26.3412 93.276 26.492 94.2817 26.2673 95.2393C26.0427 96.1968 25.4591 97.0356 24.6334 97.5881C24.2338 97.9304 23.7343 98.1392 23.2066 98.1846C22.6789 98.23 22.1502 98.1096 21.6963 97.8408C21.2219 97.497 20.8498 97.0345 20.6186 96.5012C20.3875 95.9679 20.3057 95.3834 20.3818 94.8085C20.5845 93.896 20.9776 93.0348 21.5362 92.2797C22.0948 91.5245 22.8068 90.8919 23.627 90.4219C25.6809 89.2696 28.3509 89.2999 31.5036 90.5229C32.5606 90.8335 33.5113 91.4223 34.2533 92.2256C34.9952 93.0289 35.5003 94.0163 35.7141 95.0814C36.4432 99.1244 32.9824 104.016 31.4112 105.381C27.8753 108.047 23.4836 109.375 19.0365 109.121C16.1874 108.916 13.4819 107.81 11.3242 105.967Z" fill="#49622D"/>
<path d="M12.4846 103.804C10.3884 101.926 8.93532 99.454 8.32554 96.7291C7.65803 93.8383 7.34994 88.168 12.8133 82.7301C15.2831 80.243 18.2432 78.2787 21.5119 76.9578C24.7806 75.6368 28.289 74.9871 31.822 75.0484C40.2933 75.2015 48.3623 78.6332 54.2812 84.6C61.1104 91.5035 63.0513 102.298 65.0949 113.73C66.9229 123.837 68.8022 134.369 74.3374 142.627C77.4182 147.257 82.2859 149.622 85.8494 150.784C88.4303 151.706 91.1914 152.035 93.9212 151.744L93.9931 152.513C91.1513 152.806 88.2788 152.461 85.5927 151.502C81.9162 150.299 76.8534 147.843 73.6904 143.042C68.1141 134.642 66.2143 124.08 64.3863 113.861C62.3324 102.551 60.4326 91.8572 53.7677 85.1256C47.9973 79.3096 40.1313 75.9651 31.8733 75.8166C28.4378 75.7505 25.025 76.3784 21.8456 77.6614C18.6663 78.9444 15.788 80.8552 13.3884 83.2759C8.18176 88.451 8.46931 93.8181 9.10601 96.5572C10.0097 100.459 12.7311 103.814 15.8736 104.916C17.2881 105.414 18.7964 105.601 20.2922 105.463C21.788 105.325 23.2349 104.866 24.5307 104.118C27.0159 102.743 28.8849 100.529 29.2957 98.4676C29.9838 94.6671 25.7425 93.3632 25.5679 93.3026L25.7938 92.5749C25.7938 92.5749 30.8772 94.1517 30.0556 98.6394C29.614 100.914 27.591 103.329 24.9209 104.815C23.5272 105.622 21.97 106.116 20.36 106.263C18.7501 106.41 17.1271 106.205 15.6066 105.664C14.4535 105.249 13.3932 104.617 12.4846 103.804Z" fill="#49622D"/>
<path d="M56.6432 148.853C53.4905 146.134 51.0463 132.934 50.1118 113.477C49.7935 106.068 47.5034 81.6585 31.1237 78.6061C24.7977 77.4437 18.4101 79.6774 14.8363 84.3067C13.3859 86.1714 12.511 88.4074 12.3162 90.748C12.1214 93.0886 12.6148 95.4349 13.7375 97.5071C14.8594 99.7433 16.761 101.508 19.0951 102.478C21.4292 103.449 24.0401 103.561 26.4511 102.793L26.6975 103.531C24.1048 104.353 21.2984 104.229 18.7908 103.182C16.2832 102.135 14.2417 100.236 13.0392 97.8306C11.8502 95.6323 11.3284 93.1439 11.536 90.6619C11.7435 88.1799 12.6717 85.809 14.2099 83.8316C17.9583 78.98 24.6539 76.6351 31.2674 77.848C48.212 80.9914 50.5637 105.876 50.882 113.437C51.8063 132.388 54.1991 145.69 57.1464 148.237H57.1977L56.6945 148.823C56.6945 148.823 56.6534 148.863 56.6432 148.853Z" fill="#49622D"/>
<path d="M46.384 139.999C42.5638 134.299 43.0157 125.192 43.4983 115.549C44.1556 102.409 44.8744 88.7843 34.7898 82.366C33.1504 81.4053 31.3171 80.8096 29.4187 80.621C27.5203 80.4325 25.603 80.6555 23.8016 81.2744C22.0548 81.766 20.4401 82.6317 19.073 83.8095C17.706 84.9872 16.6204 86.4479 15.8941 88.0869C14.9305 90.514 14.7039 93.1644 15.2417 95.7159C15.7795 98.2674 17.0586 100.61 18.9236 102.46L18.3793 103.016C16.4089 101.056 15.0569 98.5769 14.4865 95.8776C13.9161 93.1784 14.1518 90.3743 15.165 87.8039C15.9337 86.0587 17.0856 84.5027 18.5381 83.2479C19.9906 81.9931 21.7075 81.0706 23.5654 80.5467C25.4775 79.8935 27.5116 79.66 29.5252 79.8625C31.5387 80.0651 33.4828 80.6987 35.2212 81.7192C45.6549 88.3598 44.9463 102.207 44.2788 115.589C43.8064 125.101 43.3546 134.086 47.0413 139.575L46.384 139.999Z" fill="#49622D"/>
<path d="M40.7153 133.116C38.5998 128.133 39.3289 116.944 39.9143 107.847C40.2821 104.048 40.3953 100.229 40.2532 96.4155C39.9206 94.0869 39.0941 91.8531 37.8273 89.8593C36.5605 87.8655 34.8819 86.1562 32.9003 84.8424C31.6466 84.0308 30.2185 83.517 28.7286 83.3416C27.2387 83.1662 25.7278 83.334 24.315 83.8317C16.1508 86.5809 17.4961 93.0093 17.5577 93.2721L16.7978 93.4439C16.7978 93.3732 15.2163 86.0856 24.0583 83.1039C25.5801 82.5724 27.2062 82.3943 28.8095 82.5837C30.4128 82.7731 31.9499 83.3247 33.3008 84.1955C35.3715 85.5793 37.1268 87.3725 38.4546 89.4607C39.7824 91.549 40.6538 93.8866 41.0131 96.3246C41.1556 100.185 41.0424 104.051 40.6742 107.898C40.0889 116.833 39.37 127.961 41.4136 132.782L40.7153 133.116Z" fill="#49622D"/>
<path d="M62.2606 145.023C59.0565 142.263 57.7728 133.621 56.0989 122.695C53.3364 104.037 49.9372 80.8399 34.985 76.0388L35.2314 75.311C50.6356 80.2435 54.0758 103.723 56.8691 122.574C58.3993 132.924 59.724 141.869 62.7227 144.447L62.2195 145.033L62.2606 145.023Z" fill="#49622D"/>
<path d="M66.5326 144.952C62.4249 141.434 61.593 132.762 60.6175 122.897C59.077 107.251 57.1669 87.7736 41.6806 80.011L42.0401 79.3237C57.896 87.2885 59.837 106.988 61.3979 122.786C62.4249 133.601 63.3491 142.951 68.4633 145.255L68.1347 145.953C67.5547 145.696 67.0152 145.359 66.5326 144.952Z" fill="#49622D"/>
<path d="M0.602919 93.0095C0.347506 90.1644 0.7224 87.2987 1.70174 84.6101C2.0487 83.5764 2.50296 82.5806 3.05731 81.6385C3.14791 81.4366 3.25795 81.2437 3.38592 81.0624C4.35452 79.4121 5.54642 77.899 6.92889 76.5645C8.695 74.8543 10.6841 73.3826 12.8441 72.188L13.0084 72.1375V72.4407L13.3575 72.7439L13.1727 72.8248C11.0695 73.9813 9.13494 75.4127 7.42182 77.08C6.08186 78.3675 4.92777 79.8299 3.99183 81.4262C3.87963 81.594 3.78008 81.7697 3.69401 81.9519C3.15264 82.8631 2.71196 83.8289 2.37953 84.8325C1.44521 87.4226 1.09479 90.1818 1.35258 92.9185L0.602919 93.0095Z" fill="#49622D"/>
<path d="M7.33967 111.051C6.89068 110.929 6.4485 110.784 6.01492 110.617C5.47064 110.415 4.92635 110.213 4.40261 109.99C3.59133 109.687 2.79031 109.303 1.98929 108.929C-2.86815 106.523 -7.06833 103.218 -9.23518 100.105C-13.4867 93.899 -17.4507 86.1465 -23.0784 85.3683C-23.6303 85.2926 -24.1901 85.2926 -24.742 85.3683C-24.742 85.3683 -18.2415 87.1573 -17.2659 91.9584C-17.0822 93.8764 -17.5518 95.8001 -18.6009 97.4265C-19.0186 97.9522 -19.3929 98.5099 -19.7203 99.0943C-22.5649 102.693 -27.5353 105.159 -33.2143 100.994C-42.5287 94.1315 -38.8625 86.7024 -35.7098 82.2956C-32.557 77.8887 -24.4134 73.027 -16.1362 76.8577C-9.56381 79.89 -5.20956 87.5616 0.993172 93.0298C1.30211 96.7319 2.55226 100.298 4.62854 103.4C4.92635 103.835 5.2139 104.259 5.53226 104.664C-0.947752 101.884 -5.76412 96.345 -9.96432 91.4429C-13.1376 87.7839 -16.5778 83.1648 -21.3634 82.3461C-18.5496 82.8515 -13.3738 87.4504 -8.41363 95.8093C-4.85386 101.801 0.858578 106.262 7.59641 108.312C7.44517 109.218 7.35938 110.134 7.33967 111.051Z" fill="#49622D"/>
<path d="M-33.4505 101.288C-27.6072 105.543 -22.3698 103.056 -19.3814 99.266C-19.0539 98.6849 -18.6796 98.1305 -18.262 97.6084C-17.1682 95.8982 -16.684 93.8783 -16.8859 91.8673C-17.5021 88.835 -20.1721 86.955 -22.2055 85.9544C-18.1696 87.1168 -14.9039 92.1604 -11.7306 97.0727C-11.0118 98.1845 -10.2827 99.2963 -9.55353 100.368C-7.34561 103.521 -3.10433 106.877 1.82499 109.323C2.61574 109.687 3.43729 110.081 4.24858 110.334C4.73124 110.546 5.27552 110.738 5.73764 110.92H5.88141C6.323 111.082 6.78512 111.254 7.24725 111.375L7.72991 111.486V111.001C7.74438 110.117 7.81986 109.236 7.95584 108.363V108.029L7.63748 107.938C0.987165 105.924 -4.6506 101.522 -8.15689 95.6071C-9.73699 92.8862 -11.5547 90.3057 -13.5894 87.895C-12.8089 88.7441 -12.0593 89.6234 -11.3302 90.4725C-11.0015 90.8768 -10.6626 91.2608 -10.3032 91.6449C-6.31866 96.2944 -1.36881 102.086 5.3474 104.967L6.7235 105.563L5.80952 104.38C5.52198 104.017 5.25498 103.622 4.98798 103.228L4.92635 103.137C2.8854 100.072 1.66004 96.5512 1.36287 92.8983V92.7466L1.24991 92.6456C-1.03823 90.5508 -3.18242 88.3088 -5.16848 85.9342C-8.5882 82.0529 -11.8128 78.3737 -15.9719 76.4533C-24.7523 72.4103 -32.937 77.7066 -36.0281 82.0125C-41.0499 89.0372 -40.6288 95.1522 -34.7855 100.206C-34.3953 100.59 -33.9229 100.944 -33.4505 101.288ZM-5.72304 86.4901C-3.73997 88.8418 -1.61007 91.0698 0.654278 93.1611C0.980999 96.8908 2.24435 100.482 4.33073 103.612L4.38207 103.693C-1.50231 100.732 -5.99005 95.4757 -9.65623 91.2002L-10.6832 90.0378C-13.5792 86.6114 -16.8448 82.7301 -21.312 82.0125L-21.4455 82.7705C-18.8577 83.2254 -13.7845 87.5817 -8.77306 96.0518C-5.22192 102.03 0.446212 106.507 7.14455 108.626C7.05074 109.262 6.99246 109.903 6.96997 110.546L6.14841 110.253L6.01492 110.202C5.52199 110.02 4.98797 109.838 4.54638 109.626C3.74537 109.333 2.93409 108.949 2.17415 108.615C-2.64221 106.23 -6.78079 102.975 -8.91683 99.9129C-9.63569 98.8516 -10.3546 97.7499 -11.0734 96.638C-14.5856 91.2507 -18.2107 85.6815 -23.027 85.0144C-23.6195 84.9289 -24.2215 84.9289 -24.8139 85.0144L-26.5289 85.3075L-24.855 85.7623C-24.7934 85.7623 -18.5598 87.5211 -17.6664 92.0492C-17.501 93.8606 -17.9448 95.6753 -18.9295 97.2142C-19.3506 97.7339 -19.7251 98.2885 -20.0489 98.8718C-21.3736 100.55 -26.2106 105.644 -32.9986 100.701C-39.7867 95.7587 -40.5775 89.7548 -35.4119 82.5077C-32.4646 78.394 -24.6701 73.3301 -16.3211 77.1912C-14.688 77.9897 -13.1773 79.0104 -11.8333 80.2234C-9.66386 82.1701 -7.6358 84.2641 -5.76411 86.4901H-5.72304Z" fill="#49622D"/>
<path d="M-31.3966 96.446C-32.0048 95.9219 -32.5431 95.3242 -32.9987 94.667C-33.7383 93.7534 -34.2839 92.7029 -34.6032 91.5778C-34.9225 90.4527 -35.009 89.276 -34.8574 88.1174C-34.385 85.6107 -32.5263 83.3264 -28.9833 80.941C-23.9924 77.646 -13.7024 79.6371 -8.80388 86.6214C-5.86086 90.9496 -2.14482 94.7166 2.16388 97.7397L1.72229 98.3765C-2.66456 95.3118 -6.44729 91.4859 -9.44058 87.0864C-14.1132 80.4457 -23.8178 78.5152 -28.5417 81.598C-31.8998 83.8621 -33.6764 85.9847 -34.0872 88.2791C-34.2267 89.3379 -34.1457 90.4136 -33.8491 91.4406C-33.5525 92.4676 -33.0465 93.4243 -32.3619 94.2526C-30.4826 96.9412 -27.7304 98.1238 -24.9988 97.4567C-24.0547 97.2744 -23.1891 96.8145 -22.5162 96.1377C-21.8432 95.461 -21.3947 94.5993 -21.2299 93.6664C-20.8704 89.7548 -23.2838 89.3404 -23.3351 89.3302L-23.2221 88.5621C-23.2221 88.5621 -20.0181 89.0877 -20.4597 93.7472C-20.6396 94.8376 -21.1526 95.8481 -21.9304 96.6444C-22.7083 97.4407 -23.7141 97.9849 -24.8139 98.2047C-25.9739 98.4575 -27.1788 98.4296 -28.3253 98.1233C-29.4719 97.817 -30.5258 97.2414 -31.3966 96.446Z" fill="#49622D"/>
<path d="M1.24359 92.6809L1.42134 92.834L0.907345 93.4121L0.729592 93.259L1.24359 92.6809Z" fill="#49622D"/>
<path d="M24.541 62.3635C23.8177 61.7704 23.2817 60.9863 22.9961 60.1035C22.7104 59.2207 22.6871 58.2759 22.9287 57.3805C23.1099 56.4639 23.5938 55.632 24.3051 55.0141C25.0165 54.3963 25.9153 54.0271 26.8618 53.9641C27.3116 53.9671 27.7443 54.134 28.0762 54.4328C28.4082 54.7315 28.6158 55.1407 28.659 55.5813C28.7357 55.9074 28.7289 56.2471 28.6393 56.5699C28.5496 56.8927 28.38 57.1886 28.1455 57.431C27.884 57.6361 27.5813 57.7844 27.2575 57.8663C26.9336 57.9482 26.5958 57.9617 26.2662 57.906L26.3997 57.148C26.61 57.1843 26.8255 57.1788 27.0336 57.1319C27.2417 57.0851 27.4382 56.9977 27.6115 56.8751C27.7461 56.7097 27.841 56.5165 27.889 56.31C27.937 56.1035 27.9369 55.8889 27.8888 55.6824C27.8731 55.425 27.758 55.1832 27.5671 55.0066C27.3761 54.8299 27.1239 54.7318 26.8618 54.7323C26.0991 54.8059 25.381 55.1203 24.8147 55.6285C24.2483 56.1367 23.8641 56.8115 23.7194 57.5523C23.4631 58.7223 23.689 59.9446 24.3475 60.9509C25.006 61.9571 26.0432 62.6651 27.2315 62.9194C27.9967 63.1738 28.8244 63.1817 29.5945 62.9418C30.3645 62.7019 31.0368 62.2267 31.5139 61.5852C33.1262 59.4525 33.1262 55.6824 31.5139 53.014C31.0762 52.2006 30.4376 51.5085 29.657 51.0016C28.8764 50.4947 27.9787 50.1892 27.0467 50.1131C23.6783 49.8504 19.6424 52.3166 17.5577 54.7626L16.9518 54.2774C19.1598 51.6798 23.4729 49.0822 27.098 49.3652C28.1532 49.4451 29.171 49.7851 30.0575 50.3539C30.9441 50.9226 31.671 51.7019 32.1711 52.6198C33.9478 55.551 33.9272 59.6951 32.1711 62.0501C31.6011 62.8219 30.796 63.3949 29.8726 63.6857C28.9493 63.9765 27.9558 63.9701 27.0364 63.6673C26.1132 63.4288 25.2589 62.9825 24.541 62.3635Z" fill="#49622D"/>
<path d="M19.5911 56.2989C20.3818 54.6311 23.2367 51.7404 25.2701 51.3057C25.9389 51.1725 26.6279 51.1719 27.2969 51.3037C27.966 51.4356 28.6016 51.6974 29.1666 52.0738C29.7317 52.4502 30.2149 52.9337 30.5879 53.496C30.961 54.0583 31.2164 54.6882 31.3393 55.3487C31.822 57.4208 31.1339 59.9274 28.5152 60.5541C25.116 61.3829 23.2573 57.1984 23.1854 57.0165L23.9043 56.7133C23.9043 56.7638 25.5782 60.4834 28.3304 59.8062C30.4561 59.3008 30.9902 57.2894 30.5794 55.5206C30.4848 54.9554 30.2753 54.4148 29.9633 53.9312C29.6514 53.4477 29.2434 53.031 28.764 52.7063C28.2845 52.3817 27.7434 52.1556 27.173 52.0417C26.6026 51.9279 26.0148 51.9285 25.4447 52.0436C23.6783 52.4277 20.998 55.1567 20.31 56.6122L19.5911 56.2989Z" fill="#49622D"/>
<path d="M26.3586 69.6407V68.8725C28.1318 68.9365 29.895 68.5839 31.5022 67.8439C33.1095 67.104 34.5145 65.9979 35.6011 64.6172C36.8183 63.1738 37.6812 61.4737 38.1229 59.649C38.5646 57.8242 38.5732 55.9238 38.1479 54.0953C37.2545 50.8407 35.4882 48.6271 32.8797 47.5254C29.3676 46.0295 24.6026 46.7269 19.4473 49.466L19.0776 48.7989C24.4383 45.9385 29.4497 45.231 33.1878 46.7774C34.632 47.44 35.8997 48.4242 36.8907 49.6522C37.8817 50.8802 38.5688 52.3182 38.8976 53.8527C39.3535 55.7974 39.3479 57.8194 38.8813 59.7616C38.4147 61.7038 37.4996 63.5141 36.207 65.0519C35.0529 66.5307 33.5579 67.7182 31.8455 68.5161C30.1331 69.314 28.2523 69.6995 26.3586 69.6407Z" fill="#49622D"/>
<path d="M25.9581 66.6996L25.8862 65.9314C31.175 65.4361 34.7077 62.8992 35.5806 58.8561C35.9612 56.9059 35.7194 54.8875 34.8883 53.0778C34.0572 51.2682 32.6777 49.756 30.9388 48.7486C26.3176 46.151 20.2278 47.7379 14.2305 53.2262L13.6964 52.6602C22.6103 44.5742 28.9876 46.7675 31.3188 48.0815C33.2042 49.1699 34.6999 50.8075 35.5994 52.7683C36.4989 54.729 36.7578 56.9162 36.3405 59.028C35.4368 63.3742 31.6063 66.1639 25.9581 66.6996Z" fill="#49622D"/>
<path d="M6.81594 45.9286V45.1604C11.1804 45.3727 14.9185 47.9602 15.9249 51.4574L15.1752 51.6595C14.4667 49.0619 11.5193 46.1913 6.81594 45.9286Z" fill="#49622D"/>
<path d="M2.57466 41.8956V41.1274C10.4205 41.5115 15.432 44.2203 18.3177 49.6582L17.6296 50.012C14.898 44.847 10.1432 42.2595 2.57466 41.8956Z" fill="#49622D"/>
<path d="M5.11121 39.2172V38.449C12.5668 38.5804 17.7939 41.7744 21.0904 48.1825L20.3921 48.5262C17.2497 42.3808 12.2485 39.3384 5.11121 39.2172Z" fill="#49622D"/>
<mask id="mask0_3446_221" style="mask-type:luminance" maskUnits="userSpaceOnUse" x="-1" y="0" width="74" height="95">
<path d="M-0.169998 0H73V94.08H-0.169998V0Z" fill="white"/>
</mask>
<g mask="url(#mask0_3446_221)">
</g>
</g>
<defs>
<clipPath id="clip0_3446_221">
<rect width="65" height="94" fill="white" transform="matrix(-1 0 0 1 65 0)"/>
</clipPath>
</defs>
</svg>
