<svg width="24" height="24" viewBox="0 0 24 24" fill="none" xmlns="http://www.w3.org/2000/svg">
<path d="M12 5.51001C12.56 5.51001 13.12 5.86001 13.54 6.57001L19.45 16.42C20.31 17.84 19.65 19 18 19H6.00004C4.35004 19 3.69004 17.84 4.54004 16.43L10.45 6.58001C10.88 5.86001 11.44 5.51001 12 5.51001ZM12 3.51001C10.7 3.51001 9.52004 4.25001 8.74004 5.54001L2.83004 15.4C2.39004 16.14 2.17004 16.9 2.17004 17.63C2.17004 18.19 2.31004 18.74 2.59004 19.23C3.23004 20.35 4.47004 21 6.00004 21H18C19.53 21 20.77 20.35 21.41 19.23C21.7 18.72 21.84 18.16 21.83 17.58C21.82 16.87 21.6 16.12 21.17 15.4L15.26 5.55001C14.48 4.25001 13.3 3.51001 12 3.51001ZM13.5 16.75C13.5 16.75 12.79 17.11 12.43 16.93C12.07 16.75 12 16.39 12.2 15.78L12.61 14.56C13.01 13.34 12.49 12.48 11.53 12.43C10.27 12.36 9.51004 13.26 9.51004 13.26C9.51004 13.26 10.22 12.9 10.58 13.08C10.94 13.26 11.01 13.62 10.81 14.23L10.4 15.45C10 16.67 10.52 17.52 11.48 17.58C12.74 17.64 13.5 16.75 13.5 16.75Z" fill="#175831"/>
<path d="M12 11.3C12.7179 11.3 13.3 10.7179 13.3 9.99995C13.3 9.28198 12.7179 8.69995 12 8.69995C11.282 8.69995 10.7 9.28198 10.7 9.99995C10.7 10.7179 11.282 11.3 12 11.3Z" fill="#175831"/>
</svg>
