<svg width="24" height="25" viewBox="0 0 24 25" fill="none" xmlns="http://www.w3.org/2000/svg">
<path d="M14.4561 7.50013C13.9213 7.50013 13.3184 7.73028 12.5708 8.56503V14.6969C13.4727 14.0455 14.3748 13.7769 15.2222 13.7668C16.2997 13.7539 17.268 14.1245 18.1079 14.4904C18.9479 14.8563 19.6802 15.209 20.1777 15.2623C20.4265 15.2891 20.5997 15.2582 20.7667 15.154C20.9161 15.0607 21.077 14.8813 21.2354 14.5666L20.2671 8.48431C19.768 8.83236 19.2884 9.02586 18.8271 9.07906C18.18 9.15369 17.6054 8.96047 17.1045 8.70547C16.1027 8.19571 15.3156 7.49802 14.4561 7.50013ZM9.79787 7.7345C8.94859 7.73066 8.12992 8.45872 7.10697 9.00449C6.59547 9.27739 6.01253 9.49171 5.35352 9.43367C4.88392 9.39242 4.39619 9.20952 3.89167 8.86386L2.98047 14.8903C3.61872 15.5041 4.16847 15.6199 4.78956 15.5391C5.45833 15.4521 6.21138 15.0772 7.01172 14.691C7.81206 14.3048 8.66687 13.9046 9.61037 13.8838C10.2936 13.8688 11.004 14.0811 11.6949 14.603V8.609C10.933 7.74416 10.5336 7.73628 9.79787 7.7345ZM2.16166 9.51861L1 16.9352L10.1362 17.5446V18.4352H14.0532V17.546L23.2187 16.9352L22.0571 9.51861L21.3292 9.5758L22.123 14.568L22.1437 14.6983L22.0894 14.8169C21.8663 15.3117 21.5857 15.675 21.231 15.8966C21.0595 16.0037 20.8752 16.0713 20.6875 16.1089L20.689 16.1177L20.5953 16.1265L20.5836 16.1279C20.5387 16.1343 20.4938 16.1381 20.4488 16.1412H20.443L12.1519 16.9438L12.1152 16.9468L12.0801 16.9439L4.65194 16.4298H4.64753C4.43163 16.4393 4.21263 16.4251 3.99269 16.3843H3.98828C3.37797 16.2703 2.76184 15.9489 2.19531 15.3473L2.04883 15.1919L2.08117 14.981L2.89703 9.57575L2.16166 9.51861ZM15.2324 14.6427C14.3651 14.653 13.4592 14.9557 12.4463 15.9376L12.3364 16.0445L18.1753 15.4805C18.0373 15.4177 17.8991 15.3545 17.7578 15.293C16.9489 14.9406 16.0997 14.6323 15.2324 14.6427ZM9.62941 14.7598C8.93069 14.7752 8.17909 15.1011 7.39253 15.4805C7.237 15.5555 7.07894 15.6327 6.92097 15.7091L11.938 16.0562L11.8105 15.9097C11.0094 14.9871 10.3281 14.7445 9.62941 14.7598Z" fill="#932729"/>
</svg>
