<svg width="30" height="31" viewBox="0 0 30 31" fill="none" xmlns="http://www.w3.org/2000/svg">
<path d="M0 15.5C0 7.21573 6.71573 0.5 15 0.5C23.2843 0.5 30 7.21573 30 15.5C30 23.7843 23.2843 30.5 15 30.5C6.71573 30.5 0 23.7843 0 15.5Z" fill="#175831"/>
<path d="M19.375 12.95H12.375V11.25C12.375 10.57 12.6375 9.975 13.1625 9.465C14.2125 8.445 15.875 8.445 16.8375 9.465C17.1875 9.805 17.3625 10.23 17.5375 10.655C17.625 11.08 18.15 11.335 18.5875 11.25C19.025 11.165 19.375 10.655 19.2 10.23C19.025 9.465 18.5875 8.785 18.0625 8.275C17.275 7.425 16.1375 7 15 7C12.55 7 10.625 8.87 10.625 11.25V12.95C9.1375 12.95 8 14.055 8 15.5V21.45C8 22.895 9.1375 24 10.625 24H19.375C20.8625 24 22 22.895 22 21.45V15.5C22 14.055 20.8625 12.95 19.375 12.95Z" fill="#FAFAFA"/>
</svg>
