<svg width="24" height="24" viewBox="0 0 24 24" fill="none" xmlns="http://www.w3.org/2000/svg">
<path d="M12 5C11.6627 5 11.3286 5.06463 11.0169 5.19019C10.7053 5.31575 10.4221 5.49979 10.1835 5.73179C9.945 5.9638 9.75578 6.23923 9.62669 6.54236C9.49759 6.84549 9.43114 7.17039 9.43114 7.4985C9.43114 7.8266 9.49759 8.1515 9.62669 8.45463C9.75578 8.75776 9.945 9.03319 10.1835 9.2652C10.4221 9.49721 10.7053 9.68125 11.0169 9.80681C11.3286 9.93237 11.6627 9.99699 12 9.99699C12.6813 9.99699 13.3347 9.73376 13.8165 9.2652C14.2982 8.79664 14.5689 8.16114 14.5689 7.4985C14.5689 6.83585 14.2982 6.20035 13.8165 5.73179C13.3347 5.26323 12.6813 5 12 5ZM17.7857 6.248C17.2742 6.248 16.7837 6.44562 16.422 6.79739C16.0603 7.14916 15.8571 7.62627 15.8571 8.12375C15.8571 8.62123 16.0603 9.09833 16.422 9.4501C16.7837 9.80187 17.2742 9.99949 17.7857 9.99949C18.2972 9.99949 18.7877 9.80187 19.1494 9.4501C19.5111 9.09833 19.7143 8.62123 19.7143 8.12375C19.7143 7.62627 19.5111 7.14916 19.1494 6.79739C18.7877 6.44562 18.2972 6.248 17.7857 6.248ZM6.21429 6.248C5.7028 6.248 5.21226 6.44562 4.85058 6.79739C4.4889 7.14916 4.28571 7.62627 4.28571 8.12375C4.28571 8.62123 4.4889 9.09833 4.85058 9.4501C5.21226 9.80187 5.7028 9.99949 6.21429 9.99949C6.72578 9.99949 7.21631 9.80187 7.57799 9.4501C7.93967 9.09833 8.14286 8.62123 8.14286 8.12375C8.14286 7.62627 7.93967 7.14916 7.57799 6.79739C7.21631 6.44562 6.72578 6.248 6.21429 6.248ZM8.14286 12.4917C8.14523 12.1616 8.28174 11.8458 8.5226 11.6132C8.76346 11.3805 9.08913 11.25 9.42857 11.25H14.5714C14.9124 11.25 15.2394 11.3817 15.4806 11.6163C15.7217 11.8508 15.8571 12.1688 15.8571 12.5005V16.252C15.8575 16.6456 15.7941 17.0368 15.6694 17.4112C15.3847 18.2599 14.7983 18.9821 14.0154 19.4481C13.2325 19.9141 12.3044 20.0934 11.3978 19.9538C10.4912 19.8142 9.6655 19.3648 9.06893 18.6863C8.47236 18.0078 8.14402 17.1447 8.14286 16.252V12.4917ZM6.85714 12.5005C6.85714 12.0441 6.98186 11.6176 7.20171 11.25H4.28571C3.94472 11.25 3.6177 11.3817 3.37658 11.6163C3.13546 11.8508 3 12.1688 3 12.5005V15.6267C2.99983 16.1386 3.12886 16.6426 3.37578 17.0946C3.6227 17.5466 3.97994 17.9327 4.41614 18.2191C4.85234 18.5054 5.35415 18.6832 5.8775 18.7368C6.40085 18.7904 6.92974 18.7183 7.41771 18.5266C7.04845 17.8218 6.85633 17.0418 6.85714 16.2507V12.5005ZM17.1429 12.5005V16.252C17.1429 17.0711 16.941 17.8439 16.5823 18.5266C17.0703 18.7183 17.5991 18.7904 18.1225 18.7368C18.6459 18.6832 19.1477 18.5054 19.5839 18.2191C20.0201 17.9327 20.3773 17.5466 20.6242 17.0946C20.8711 16.6426 21.0002 16.1386 21 15.6267V12.5005C21 12.1688 20.8645 11.8508 20.6234 11.6163C20.3823 11.3817 20.0553 11.25 19.7143 11.25H16.7983C17.0169 11.6176 17.1429 12.0441 17.1429 12.5005Z" fill="#937127"/>
</svg>
