<svg width="54" height="54" viewBox="0 0 54 54" fill="none" xmlns="http://www.w3.org/2000/svg">
<rect width="54" height="54" rx="27" fill="#175831"/>
<path d="M38.2565 32.0941L34.2975 31.6421C33.8319 31.5874 33.3601 31.6389 32.9173 31.7928C32.4746 31.9467 32.0725 32.1989 31.7412 32.5305L28.8732 35.3985C24.4487 33.1477 20.8523 29.5512 18.6014 25.1267L21.485 22.2431C22.1553 21.5729 22.4826 20.6376 22.3735 19.6868L21.9214 15.7589C21.8334 14.9984 21.4686 14.2969 20.8965 13.7881C20.3245 13.2793 19.5852 12.9988 18.8197 13H16.1231C14.3618 13 12.8966 14.4652 13.0057 16.2265C13.8318 29.5378 24.4777 40.1682 37.7734 40.9943C39.5347 41.1034 40.9998 39.6382 40.9998 37.8769V35.1803C41.0154 33.606 39.8308 32.2811 38.2565 32.0941Z" fill="#FAFAFA"/>
</svg>
