<svg width="55" height="54" viewBox="0 0 55 54" fill="none" xmlns="http://www.w3.org/2000/svg">
<rect x="0.5" width="54" height="54" rx="27" fill="#175831"/>
<path d="M19.7994 20.2945L23.9214 23.9215L27.5939 19.3997C27.6968 19.2733 27.8268 19.1717 27.9744 19.1025C28.1219 19.0333 28.2831 18.9983 28.4461 19.0001C28.609 19.0018 28.7695 19.0403 28.9155 19.1127C29.0615 19.1851 29.1893 19.2895 29.2894 19.4181L32.7939 23.9204L37.0493 20.2414C37.2164 20.0973 37.4235 20.0076 37.643 19.9843C37.8625 19.9611 38.0839 20.0055 38.2774 20.1115C38.471 20.2176 38.6276 20.3802 38.7262 20.5777C38.8248 20.7751 38.8607 20.998 38.8292 21.2164L37.2042 32.4257H19.6618L18.0119 21.2674C17.9791 21.0477 18.0146 20.8233 18.1136 20.6245C18.2127 20.4257 18.3704 20.2621 18.5655 20.156C18.7605 20.0498 18.9835 20.0061 19.2042 20.0309C19.4249 20.0557 19.6327 20.1477 19.7994 20.2945ZM19.7463 33.509H37.0796V34.5924C37.0796 34.8797 36.9655 35.1552 36.7623 35.3584C36.5591 35.5616 36.2836 35.6757 35.9963 35.6757H20.8296C20.5423 35.6757 20.2667 35.5616 20.0636 35.3584C19.8604 35.1552 19.7463 34.8797 19.7463 34.5924V33.509Z" fill="#FAFAFA"/>
</svg>
