<svg width="24" height="24" viewBox="0 0 24 24" fill="none" xmlns="http://www.w3.org/2000/svg">
<path d="M2.05327 19.7618L21.0012 19.7618C21.193 19.7612 21.3811 19.7083 21.5451 19.6087C21.7091 19.5092 21.8428 19.3668 21.9319 19.197C22.021 19.0271 22.0621 18.8361 22.0508 18.6446C22.0394 18.4531 21.9761 18.2683 21.8675 18.1101L12.3936 4.42554C12.0009 3.85815 11.0556 3.85815 10.6619 4.42554L1.18798 18.1101C1.07832 18.268 1.01401 18.4529 1.00204 18.6447C0.990073 18.8365 1.0309 19.0279 1.1201 19.1982C1.20929 19.3684 1.34343 19.511 1.50795 19.6103C1.67247 19.7097 1.86107 19.7621 2.05327 19.7618Z" fill="#40812D"/>
</svg>
