<svg width="24" height="24" viewBox="0 0 24 24" fill="none" xmlns="http://www.w3.org/2000/svg">
<path d="M20.9969 3.99997L2.05132 3.99997C1.8595 4.00057 1.67148 4.05348 1.5075 4.15299C1.34351 4.2525 1.20978 4.39484 1.12067 4.56471C1.03157 4.73457 0.990486 4.92552 1.00184 5.117C1.01318 5.30848 1.07654 5.49324 1.18508 5.65139L10.6579 19.3343C11.0504 19.9016 11.9956 19.9016 12.3893 19.3343L21.862 5.65139C21.9717 5.49357 22.036 5.30872 22.0479 5.11692C22.0599 4.92512 22.0191 4.73371 21.9299 4.56349C21.8407 4.39326 21.7066 4.25073 21.5421 4.15139C21.3776 4.05204 21.189 3.99967 20.9969 3.99997Z" fill="#812D2D"/>
</svg>
