<svg width="30" height="31" viewBox="0 0 30 31" fill="none" xmlns="http://www.w3.org/2000/svg">
<path d="M0 15.5C0 7.21573 6.71573 0.5 15 0.5C23.2843 0.5 30 7.21573 30 15.5C30 23.7843 23.2843 30.5 15 30.5C6.71573 30.5 0 23.7843 0 15.5Z" fill="#175831"/>
<path fill-rule="evenodd" clip-rule="evenodd" d="M13.776 11.2934C14.1913 11.3718 14.5807 11.552 14.9091 11.8181C15.2375 12.0841 15.4946 12.4276 15.6574 12.8176C15.8202 13.2076 15.8836 13.632 15.8418 14.0526C15.8 14.4731 15.6543 14.8767 15.4179 15.2271L21.9506 20.2978C22.1634 20.1876 22.4072 20.1525 22.6424 20.1983C22.8776 20.244 23.0904 20.368 23.2463 20.5499C23.4022 20.7319 23.492 20.9612 23.5011 21.2007C23.5103 21.4401 23.4382 21.6756 23.2966 21.869C23.155 22.0623 22.9523 22.2021 22.7212 22.2656C22.4902 22.3292 22.2445 22.3128 22.0239 22.2191C21.8034 22.1254 21.621 21.9599 21.5064 21.7495C21.3917 21.539 21.3516 21.2961 21.3925 21.0599L14.7483 15.9023C14.4354 16.1167 14.0787 16.2587 13.704 16.3177C13.3294 16.3768 12.9462 16.3516 12.5826 16.2438C12.2189 16.1361 11.8838 15.9486 11.6018 15.695C11.3198 15.4414 11.0979 15.1281 10.9522 14.7778C10.8066 14.4276 10.741 14.0493 10.7601 13.6705C10.7792 13.2917 10.8825 12.9219 11.0626 12.5881C11.2427 12.2543 11.495 11.9649 11.8011 11.7409C12.1072 11.5169 12.4594 11.3641 12.832 11.2934L12.8311 7H13.7755L13.776 11.2934ZM14.1533 13.8C14.1533 13.9116 14.1313 14.0222 14.0886 14.1253C14.0459 14.2284 13.9833 14.3221 13.9044 14.401C13.8254 14.48 13.7317 14.5426 13.6286 14.5853C13.5255 14.628 13.4149 14.65 13.3033 14.65C13.1917 14.65 13.0812 14.628 12.978 14.5853C12.8749 14.5426 12.7812 14.48 12.7023 14.401C12.6233 14.3221 12.5607 14.2284 12.518 14.1253C12.4753 14.0222 12.4533 13.9116 12.4533 13.8C12.4533 13.5746 12.5429 13.3584 12.7023 13.199C12.8617 13.0396 13.0779 12.95 13.3033 12.95C13.5288 12.95 13.745 13.0396 13.9044 13.199C14.0638 13.3584 14.1533 13.5746 14.1533 13.8Z" fill="#FAFAFA"/>
<path d="M16.7146 13.7924C16.7148 13.1392 16.5268 12.4998 16.1732 11.9506C15.8195 11.4014 15.3152 10.9657 14.7204 10.6956V7.05005C16.7458 7.22808 17.7979 7.86605 18.74 8.73919C18.7875 8.78358 18.8341 8.82655 18.8797 8.8681C19.2811 9.23644 19.6003 9.53016 19.7652 9.96933L21.7645 15.2922C21.818 15.4351 21.8361 15.5888 21.8172 15.7402C21.7983 15.8915 21.743 16.0361 21.6561 16.1614C21.5692 16.2868 21.4532 16.3892 21.318 16.46C21.1829 16.5307 21.0326 16.5677 20.8801 16.5677H20.1099V17.6722L16.5328 14.8946C16.6539 14.5399 16.7154 14.1677 16.7151 13.7929M11.8871 10.705V7.1138C7.64179 7.75272 6.50232 10.9199 6.50232 12.6549C6.50232 15.3782 8.24151 17.4904 9.05704 18.3371V24H17.1377V20.9249H19.165C19.3076 20.9249 19.4436 20.8928 19.5645 20.8361L14.566 16.9544C13.7398 17.2954 12.8127 17.2973 11.9851 16.9598C11.1575 16.6223 10.4961 15.9726 10.144 15.1511C9.7919 14.3297 9.77737 13.4026 10.1036 12.5706C10.4298 11.7385 11.0705 11.0683 11.8871 10.705Z" fill="#FAFAFA"/>
</svg>
