<svg width="24" height="24" viewBox="0 0 24 24" fill="none" xmlns="http://www.w3.org/2000/svg">
<path d="M5.67599 4.25706C9.60399 1.03806 15.409 1.26206 19.076 4.92906C22.981 8.83406 22.981 15.1661 19.076 19.0711C15.171 22.9761 8.83899 22.9761 4.93399 19.0711C3.73556 17.8744 2.86103 16.3927 2.39258 14.7652C1.92412 13.1376 1.87712 11.4177 2.25599 9.76706L2.33299 9.45406L4.26699 9.96406C3.78753 11.7863 3.96668 13.7193 4.77287 15.4224C5.57905 17.1256 6.96053 18.4894 8.67382 19.2737C10.3871 20.058 12.3223 20.2124 14.1382 19.7096C15.9542 19.2069 17.5344 18.0792 18.6004 16.5255C19.6664 14.9717 20.1497 13.0915 19.9652 11.2163C19.7807 9.34109 18.9402 7.59117 17.5919 6.27496C16.2435 4.95875 14.4738 4.16072 12.5947 4.02152C10.7155 3.88232 8.84758 4.41089 7.31999 5.51406L7.09999 5.68006L8.11699 6.69706L3.52099 7.75706L4.58099 3.16106L5.67599 4.25706Z" fill="#175831"/>
<path d="M12.1957 18L9 12.916V12.2381H9.37198C9.9694 12.2381 10.471 12.1867 10.8768 12.084C11.2939 11.9813 11.6208 11.8119 11.8575 11.5756C12.0942 11.3394 12.2351 11.0159 12.2802 10.605H9V9.61905H12.2633C12.1844 9.23903 12.0266 8.93091 11.7899 8.69468C11.5531 8.44818 11.2319 8.26844 10.8261 8.15546C10.4316 8.04248 9.94686 7.98599 9.37198 7.98599H9V7H16V7.98599H12.8043C13.0636 8.18114 13.2778 8.41223 13.4469 8.67927C13.6159 8.94631 13.723 9.25957 13.7681 9.61905H16V10.605H13.8019C13.723 11.3548 13.4074 11.9402 12.8551 12.3613C12.314 12.7722 11.5926 13.0341 10.6908 13.1471L13.9203 18H12.1957Z" fill="#175831"/>
</svg>
