<svg width="24" height="24" viewBox="0 0 24 24" fill="none" xmlns="http://www.w3.org/2000/svg">
<path d="M20.0308 6.34157L12.1847 2.85234C12.1269 2.82518 12.0639 2.8111 12.0001 2.8111C11.9363 2.8111 11.8732 2.82518 11.8155 2.85234L3.96931 6.34157C3.88818 6.37696 3.81893 6.43494 3.76983 6.50859C3.72074 6.58224 3.69385 6.66845 3.69238 6.75695V9.2308C3.69238 13.7723 6.40623 19.2739 11.8339 21.1754C11.9417 21.212 12.0585 21.212 12.1662 21.1754C17.5939 19.2739 20.3078 13.7723 20.3078 9.2308V6.75695C20.3063 6.66845 20.2794 6.58224 20.2303 6.50859C20.1812 6.43494 20.112 6.37696 20.0308 6.34157Z" fill="#937127"/>
</svg>
