<svg width="25" height="25" viewBox="0 0 25 25" fill="none" xmlns="http://www.w3.org/2000/svg">
<path d="M15.5 5.89999C15.5 6.69564 15.184 7.45871 14.6213 8.02131C14.0587 8.58392 13.2957 8.89999 12.5 8.89999C11.7044 8.89999 10.9413 8.58392 10.3787 8.02131C9.8161 7.45871 9.50002 6.69564 9.50002 5.89999C9.50002 5.10434 9.8161 4.34128 10.3787 3.77867C10.9413 3.21606 11.7044 2.89999 12.5 2.89999C13.2957 2.89999 14.0587 3.21606 14.6213 3.77867C15.184 4.34128 15.5 5.10434 15.5 5.89999ZM21.5 6.49999C21.5 7.13651 21.2472 7.74696 20.7971 8.19705C20.347 8.64714 19.7365 8.89999 19.1 8.89999C18.4635 8.89999 17.8531 8.64714 17.403 8.19705C16.9529 7.74696 16.7 7.13651 16.7 6.49999C16.7 5.86347 16.9529 5.25302 17.403 4.80294C17.8531 4.35285 18.4635 4.09999 19.1 4.09999C19.7365 4.09999 20.347 4.35285 20.7971 4.80294C21.2472 5.25302 21.5 5.86347 21.5 6.49999ZM5.90002 8.89999C6.53654 8.89999 7.14699 8.64714 7.59708 8.19705C8.04717 7.74696 8.30002 7.13651 8.30002 6.49999C8.30002 5.86347 8.04717 5.25302 7.59708 4.80294C7.14699 4.35285 6.53654 4.09999 5.90002 4.09999C5.2635 4.09999 4.65306 4.35285 4.20297 4.80294C3.75288 5.25302 3.50002 5.86347 3.50002 6.49999C3.50002 7.13651 3.75288 7.74696 4.20297 8.19705C4.65306 8.64714 5.2635 8.89999 5.90002 8.89999ZM7.70002 11.6C7.70002 10.772 8.37202 10.1 9.20002 10.1H15.8C16.628 10.1 17.3 10.772 17.3 11.6V17.3C17.3 18.573 16.7943 19.7939 15.8941 20.6941C14.994 21.5943 13.7731 22.1 12.5 22.1C11.227 22.1 10.0061 21.5943 9.10591 20.6941C8.20574 19.7939 7.70002 18.573 7.70002 17.3V11.6ZM6.50002 11.6C6.50002 11.0444 6.66802 10.5296 6.95482 10.1H4.40002C3.57202 10.1 2.90002 10.772 2.90002 11.6V16.1C2.89997 16.6137 3.00987 17.1215 3.22235 17.5893C3.43482 18.057 3.74495 18.4739 4.13189 18.8118C4.51883 19.1498 4.97362 19.401 5.4657 19.5486C5.95779 19.6962 6.47576 19.7368 6.98482 19.6676C6.66431 18.9194 6.49937 18.1139 6.50002 17.3V11.6ZM18.5 17.3C18.5 18.14 18.3272 18.9416 18.0152 19.6676C18.1736 19.6892 18.3352 19.7 18.5 19.7C19.4548 19.7 20.3705 19.3207 21.0456 18.6456C21.7207 17.9704 22.1 17.0548 22.1 16.1V11.6C22.1 10.772 21.428 10.1 20.6 10.1H18.0452C18.3332 10.5296 18.5 11.0444 18.5 11.6V17.3Z" fill="#932729"/>
</svg>
