<svg width="24" height="25" viewBox="0 0 24 25" fill="none" xmlns="http://www.w3.org/2000/svg">
<path d="M11.19 1.86006L4.19 4.97006C3.47 5.29006 3 6.01006 3 6.80006V11.5001C3 17.0501 6.84 22.2401 12 23.5001C17.16 22.2401 21 17.0501 21 11.5001V6.80006C21 6.01006 20.53 5.29006 19.81 4.97006L12.81 1.86006C12.3 1.63006 11.7 1.63006 11.19 1.86006ZM9.29 16.7901L6.7 14.2001C6.60742 14.1075 6.53398 13.9976 6.48387 13.8766C6.43377 13.7556 6.40798 13.626 6.40798 13.4951C6.40798 13.3641 6.43377 13.2345 6.48387 13.1135C6.53398 12.9926 6.60742 12.8826 6.7 12.7901C6.79258 12.6975 6.90249 12.624 7.02346 12.5739C7.14442 12.5238 7.27407 12.498 7.405 12.498C7.53593 12.498 7.66558 12.5238 7.78654 12.5739C7.90751 12.624 8.01742 12.6975 8.11 12.7901L10 14.6701L15.88 8.79006C15.9726 8.69748 16.0825 8.62404 16.2035 8.57393C16.3244 8.52383 16.4541 8.49804 16.585 8.49804C16.7159 8.49804 16.8456 8.52383 16.9665 8.57393C17.0875 8.62404 17.1974 8.69748 17.29 8.79006C17.3826 8.88264 17.456 8.99255 17.5061 9.11352C17.5562 9.23448 17.582 9.36413 17.582 9.49506C17.582 9.62599 17.5562 9.75564 17.5061 9.8766C17.456 9.99757 17.3826 10.1075 17.29 10.2001L10.7 16.7901C10.6075 16.8828 10.4976 16.9563 10.3766 17.0065C10.2557 17.0567 10.126 17.0825 9.995 17.0825C9.86403 17.0825 9.73435 17.0567 9.61338 17.0065C9.4924 16.9563 9.38251 16.8828 9.29 16.7901Z" fill="#932729"/>
</svg>
