<svg width="24" height="25" viewBox="0 0 24 25" fill="none" xmlns="http://www.w3.org/2000/svg">
<g clip-path="url(#clip0_184_1715)">
<path d="M0.898792 12.8563C0.898234 14.8727 1.42512 16.8417 2.42698 18.5771L0.802979 24.5066L6.87107 22.9155C8.54943 23.8292 10.4299 24.3079 12.3408 24.3081H12.3459C18.6542 24.3081 23.7894 19.1748 23.7921 12.8653C23.7933 9.80789 22.6037 6.93292 20.4424 4.76994C18.2815 2.60715 15.4075 1.41543 12.3454 1.41403C6.03628 1.41403 0.90149 6.54706 0.898886 12.8563" fill="url(#paint0_linear_184_1715)"/>
<path d="M8.99633 7.89749C8.77438 7.40419 8.5408 7.39424 8.32973 7.38559C8.15689 7.37814 7.95931 7.3787 7.76191 7.3787C7.56433 7.3787 7.24331 7.45303 6.97196 7.74931C6.70033 8.04587 5.93494 8.76252 5.93494 10.2201C5.93494 11.6777 6.99661 13.0864 7.14461 13.2843C7.2928 13.4818 9.19419 16.5687 12.2055 17.7562C14.7082 18.7431 15.2175 18.5468 15.7607 18.4973C16.304 18.448 17.5136 17.7808 17.7604 17.089C18.0074 16.3973 18.0074 15.8044 17.9334 15.6805C17.8593 15.557 17.6617 15.4829 17.3654 15.3348C17.0692 15.1867 15.6125 14.4699 15.341 14.371C15.0694 14.2722 14.8719 14.2229 14.6743 14.5195C14.4767 14.8157 13.9094 15.4829 13.7364 15.6805C13.5637 15.8785 13.3907 15.9032 13.0946 15.755C12.7981 15.6063 11.844 15.2939 10.712 14.2847C9.83122 13.4994 9.23661 12.5296 9.06377 12.2329C8.89094 11.9367 9.04526 11.7762 9.19382 11.6286C9.32694 11.4958 9.49019 11.2826 9.63847 11.1097C9.78619 10.9367 9.83549 10.8132 9.93429 10.6156C10.0332 10.4179 9.98368 10.2448 9.90973 10.0967C9.83549 9.94847 9.25977 8.48326 8.99633 7.89749Z" fill="white"/>
</g>
<defs>
<linearGradient id="paint0_linear_184_1715" x1="1150.26" y1="2310.67" x2="1150.26" y2="1.41403" gradientUnits="userSpaceOnUse">
<stop stop-color="#18812A"/>
<stop offset="1" stop-color="#49A450"/>
</linearGradient>
<clipPath id="clip0_184_1715">
<rect width="23.82" height="24" fill="white"/>
</clipPath>
</defs>
</svg>
